<svg width="185" height="197" viewBox="0 0 185 197" fill="none" xmlns="http://www.w3.org/2000/svg">
<path d="M39.6455 157.835L42.609 116.919L75.2987 115.166L82.4437 102.791L78.1402 67.3045C49.3433 48.4785 61.8381 23.9742 71.6851 14.0753C77.6965 14.7959 93.2385 16.3437 107.316 16.7709C126.517 38.8574 108.286 60.4162 96.7698 68.4348L89.3948 102.679L94.5236 115.265L113.153 116.395L112.837 121.713L127.773 122.086L125.247 164.63L39.6455 157.835Z" fill="#020002"/>
<path d="M95.1576 53H81.4476V50.75H86.9076V36.62H81.4476V34.52H83.4576C84.8376 34.52 85.7976 34.22 86.4276 33.56C87.0576 32.9 87.3576 32.06 87.3576 30.68H89.6076V50.75H95.1576V53Z" fill="white"/>
</svg>
