<svg width="184" height="192" viewBox="0 0 184 192" fill="none" xmlns="http://www.w3.org/2000/svg">
<path d="M115.035 23.3373L81.5362 44.6266L97.4117 73.4517L90.6015 85.2474L57.8945 97.8192C26.4482 81.7606 12.085 103.7 8.83415 116.677C12.6474 121.5 22.2364 134.113 30.086 145.985C59.2265 152.324 68.0151 126.817 68.7669 113.271L94.2006 91.2573L107.716 89.8862L118.589 105.338L122.98 102.63L131.238 115.262L166.365 93.6023L115.035 23.3373Z" fill="#020002"/>
<path d="M38.0014 123.327L39.2726 125.606C35.2992 128.028 31.1539 126.939 29.0205 123.114C26.7119 118.974 28.3615 115.65 30.9817 114.189C33.4707 112.8 35.8339 112.788 40.682 114.275L45.2445 115.681C47.7371 116.455 48.4602 116.704 48.4602 116.704L48.5126 116.675L43.15 107.059L45.2461 105.89L52.3621 118.65L50.528 119.673L40.2663 116.671C36.7826 115.659 34.6432 115.272 32.4423 116.5C30.4511 117.61 29.7875 119.87 30.971 121.992C32.4176 124.586 34.9651 125.089 38.0014 123.327Z" fill="white"/>
</svg>
