<svg width="161" height="177" viewBox="0 0 161 177" fill="none" xmlns="http://www.w3.org/2000/svg">
<path d="M45.3523 20.598L36.7191 59.3388L68.3272 68.4956L71.8525 81.652L57.6147 113.669C24.0237 124.55 29.3808 150.219 36.2582 161.694C42.3649 162.408 58.0645 164.547 72.0095 167.391C97.0973 151.268 85.2755 127.017 76.2286 116.907L78.6471 83.3566L87.2348 72.83L105.849 76.068L107.039 71.0487L121.811 74.141L131.333 33.987L45.3523 20.598Z" fill="#020002"/>
<path d="M59.6531 139.447L61.4541 140.113L60.6324 142.336L58.8315 141.67C56.4115 140.776 54.5273 141.806 53.716 144.001C52.9047 146.196 53.9605 148.186 56.2116 149.018C58.8005 149.975 60.911 149.283 62.0459 146.473L64.494 147.377C63.2416 150.593 59.9797 152.841 55.4212 151.156C51.4535 149.69 49.9146 146.498 51.0587 143.403C51.9843 140.898 53.8685 139.868 56.5932 139.851L56.614 139.795C54.5323 138.418 53.1628 136.153 54.3277 133.001C55.5134 129.793 59.1215 127.992 63.6238 129.657C68.2668 131.373 69.2601 135.002 68.1704 138.47L65.7504 137.575C66.5091 134.657 65.1512 132.62 62.6186 131.684C60.2268 130.8 57.7235 131.602 56.7978 134.106C55.9449 136.413 56.8392 138.407 59.6531 139.447Z" fill="white"/>
</svg>
