<svg width="184" height="192" viewBox="0 0 184 192" fill="none" xmlns="http://www.w3.org/2000/svg">
<path d="M143.536 152.107L141.848 112.452L108.947 111.788L102.137 99.9921L107.603 65.3811C137.233 46.1771 125.415 22.7685 115.802 13.4648C109.719 14.3557 94.0004 16.3532 79.7946 17.2154C59.7345 39.2822 77.4301 59.647 88.7854 67.0711L95.1328 100.104L89.5622 112.495L70.7446 114.185L70.8939 119.341L55.8249 120.177L57.0198 161.428L143.536 152.107Z" fill="#020002"/>
<path d="M92.1694 44.5215L99.7334 43.8933L98.7525 32.0839L98.6329 32.0939C98.6329 32.0939 98.3487 33.0206 97.5411 34.5326L92.1694 44.5215ZM105.391 45.6811L102.491 45.922L102.943 51.3633L100.372 51.5768L99.9196 46.1355L89.6948 46.9848L89.521 44.892L97.6944 29.4926L101.103 29.2095L102.302 43.6498L105.202 43.4089L105.391 45.6811Z" fill="white"/>
</svg>
