<svg width="146" height="165" viewBox="0 0 146 165" fill="none" xmlns="http://www.w3.org/2000/svg">
<path d="M46.5131 10.7734L33.0796 48.122L63.2863 61.1786L65.1302 74.6737L46.9816 104.647C12.2895 111.22 14.3781 137.36 19.7589 149.608C25.7274 151.084 41.0338 155.178 54.5107 159.752C81.4259 146.91 72.7455 121.366 65.0409 110.199L71.6567 77.2187L81.4992 67.8548L99.5585 73.4064L101.37 68.5765L115.636 73.5008L130.129 34.8619L46.5131 10.7734Z" fill="#020002"/>
<path d="M53.321 131.98L50.9491 130.891C51.7112 128.369 50.9594 126.34 48.3842 125.19C46.0816 124.166 43.237 124.609 41.6845 127.99C40.2572 131.098 41.4166 133.677 43.843 134.791C45.6423 135.618 47.2241 135.552 48.5259 134.73L50.7341 135.744L45.1889 146.237L34.1203 141.154L35.1094 139L44.0242 143.095L47.2936 136.838L47.2391 136.813C46.1421 137.333 44.4307 137.537 42.4405 136.623C39.169 135.121 36.9478 131.691 39.1514 126.892C41.0795 122.694 45.0032 121.195 49.3107 123.173C53.9453 125.301 54.388 128.938 53.321 131.98Z" fill="white"/>
</svg>
