<svg width="195" height="195" viewBox="0 0 195 195" fill="none" xmlns="http://www.w3.org/2000/svg">
<path d="M33.8323 55.3036L45.0758 93.3688L77.1578 86.0432L86.6226 95.8379L89.7034 130.742C65.6076 156.552 82.7444 176.4 94.3248 183.098C100.011 180.76 114.777 175.015 128.351 170.737C142.468 144.468 120.367 128.996 107.551 124.544L93.3911 94.0325L95.7943 80.6615L113.642 74.4636L112.248 69.497L126.666 65.0353L115.514 25.303L33.8323 55.3036Z" fill="#020002"/>
<path d="M102.856 163.729L105.4 162.736C106.434 164.233 108.005 164.875 110.129 164.047C113.791 162.618 113.761 158.83 111.795 153.543L111.711 153.575C111.409 155.69 109.867 157.515 107.548 158.42C104.529 159.598 100.557 158.991 98.7354 154.323C97.1432 150.243 98.5925 146.2 102.896 144.52C106.641 143.059 110.844 143.512 113.875 151.282C116.929 159.107 116.04 164.091 110.814 166.13C107.292 167.505 104.455 166.422 102.856 163.729ZM103.697 146.655C101.573 147.484 99.9775 149.749 101.275 153.075C102.464 156.121 105.003 156.934 107.351 156.018C109.866 155.036 111.154 152.891 109.911 149.705C108.613 146.379 105.905 145.794 103.697 146.655Z" fill="white"/>
</svg>
