<svg width="1440" height="467" viewBox="0 0 1440 467" fill="none" xmlns="http://www.w3.org/2000/svg">
<rect y="59" width="1440" height="123" fill="#FBE373"/>
<path d="M212.371 148.502C212.371 163.53 223.421 171.265 239.112 171.265C258.781 171.265 278.008 155.795 278.008 127.507V120.656C244.416 122.866 229.83 124.855 222.537 129.938C216.128 134.137 212.371 140.325 212.371 148.502ZM278.008 155.795C271.599 171.486 256.35 180.768 237.344 180.768C215.465 180.768 200.437 169.055 200.437 148.723C200.437 135.242 207.288 126.844 215.907 121.761C227.399 115.352 246.847 113.142 278.229 111.153V106.954C278.229 85.738 275.135 70.71 247.289 70.71C227.399 70.71 217.896 81.318 216.128 93.915H205.078C207.067 76.677 220.99 61.428 247.068 60.986C284.638 60.986 289.279 83.97 289.279 105.849V157.563C289.279 166.403 292.152 169.497 299.666 169.497H304.086V179H299.445C282.87 179 278.229 171.486 278.45 155.795H278.008Z" fill="black"/>
<path d="M403.023 147.397C403.023 161.32 412.747 168.392 427.333 168.392C444.792 168.392 463.798 155.353 463.798 126.844V121.982C433.963 123.75 418.714 125.739 411.421 130.822C405.896 134.8 403.023 140.104 403.023 147.397ZM464.019 156.679C457.389 171.928 443.245 180.768 424.681 180.768C402.139 180.768 387.553 168.613 387.553 148.06C387.553 134.8 393.741 125.739 403.907 120.214C415.62 113.805 434.847 111.595 464.019 110.048V105.186C464.019 84.633 458.273 72.699 435.51 72.699C416.062 72.699 408.327 83.307 407.001 94.357H392.194C393.962 76.235 408.106 60.544 435.289 60.323C468.218 60.323 478.605 78.666 478.605 104.302V156.016C478.605 163.972 481.036 166.624 488.329 166.624H492.528V179H487.224C470.207 179 465.124 171.928 464.682 156.679H464.019Z" fill="black"/>
<path d="M594.117 146.071C594.117 158.447 602.515 164.856 615.554 164.856C630.361 164.856 649.146 154.911 649.146 126.181V123.529C623.952 124.634 608.04 126.623 600.526 132.148C596.106 135.463 594.117 139.883 594.117 146.071ZM649.367 158.005C642.516 172.591 629.698 180.989 612.018 180.989C588.592 180.989 574.227 167.95 574.227 147.176C574.227 134.358 579.752 124.413 591.686 118.446C603.841 112.037 623.068 109.606 649.146 108.722V102.755C649.146 83.086 640.306 75.13 623.731 75.13C604.725 75.13 599.421 85.959 598.537 95.02H579.31C580.636 75.572 595.222 59.66 623.731 59.66C650.693 59.66 668.152 72.257 668.152 102.313V154.027C668.152 161.099 670.141 162.867 677.213 162.867H681.191V179H675.003C657.544 179 651.577 172.591 650.693 158.005H649.367Z" fill="black"/>
<path d="M788.305 146.745C788.305 156.911 795.156 162.215 805.322 162.215C819.024 162.215 832.947 151.386 832.947 129.507V127.96C812.173 129.065 800.681 129.728 794.714 133.927C790.294 137.021 788.305 141.662 788.305 146.745ZM834.273 164.646C827.864 175.254 815.709 183.431 798.471 183.431C776.371 183.431 758.691 173.044 758.691 147.85C758.691 134.59 764.879 124.424 776.592 118.236C789.189 111.606 804.438 109.838 832.947 108.954V103.429C832.947 88.401 826.096 81.329 812.394 81.329C798.25 81.329 792.504 89.064 792.062 98.125H763.553C764.658 76.246 782.117 60.555 811.952 60.555C842.671 60.555 860.793 72.489 860.793 104.534V151.386C860.793 156.69 862.561 158.458 868.086 158.458H873.169V181H859.467C845.102 181 837.588 177.685 835.157 164.646H834.273Z" fill="black"/>
<path d="M979.841 146.082C979.841 154.922 985.587 159.784 994.206 159.784C1007.47 159.784 1018.74 148.292 1018.74 130.17V129.286C1000.17 130.391 991.333 130.612 986.25 133.927C981.609 137.021 979.841 141.441 979.841 146.082ZM1020.73 167.077C1014.54 175.475 1002.6 183.652 985.587 183.652C964.15 183.652 944.923 174.591 944.923 147.187C944.923 133.485 951.332 122.877 963.045 116.91C975.642 110.059 988.681 108.954 1018.52 107.849V102.766C1018.52 90.169 1012.77 83.539 1000.84 83.539C989.344 83.539 983.377 89.727 982.935 98.567H949.343C950.448 75.583 969.675 59.892 1000.17 59.892C1032.88 59.892 1051.45 71.384 1051.45 104.534V148.734C1051.45 153.154 1052.99 154.922 1057.63 154.922H1063.38V181H1045.48C1032.88 181 1024.48 179.453 1021.39 167.077H1020.73Z" fill="black"/>
<path d="M1184.42 157.469C1197.23 157.469 1203.86 145.314 1203.86 132.054C1186.63 132.496 1182.43 133.159 1178.45 135.148C1173.81 137.358 1172.26 142.22 1172.26 146.198C1172.26 153.27 1176.9 157.469 1184.42 157.469ZM1134.91 100.23C1134.91 77.025 1157.01 60.008 1189.72 60.008C1225.52 60.008 1242.76 72.605 1242.76 105.534V145.093C1242.76 149.071 1244.53 151.281 1248.95 151.281H1254.25V182H1227.73C1215.14 182 1209.83 179.127 1206.96 169.182H1206.52C1201.43 176.696 1189.28 184.873 1172.48 184.873C1151.93 184.873 1130.49 177.801 1130.49 147.303C1130.49 133.159 1137.34 121.888 1148.84 116.363C1162.1 109.954 1171.82 108.628 1203.42 107.523V102.882C1203.42 93.6 1199.22 87.412 1189.72 87.412C1181.32 87.412 1175.13 91.611 1174.91 100.23H1134.91Z" fill="black"/>
<rect width="1440" height="113" transform="matrix(1 0 0 -1 0 425)" fill="#FBE373"/>
<path d="M280.218 366.435C254.582 366.877 241.543 367.982 231.156 370.855C216.57 374.833 211.266 381.905 211.266 396.049C211.266 409.309 219.664 417.265 234.471 417.265C257.455 417.265 274.693 398.038 279.113 372.844L280.218 366.435ZM274.472 401.795C265.411 417.265 253.035 426.768 233.366 426.768C213.034 426.768 199.111 415.276 199.111 396.933C199.111 376.38 211.487 365.551 229.609 361.352C242.206 358.479 253.698 358.258 281.544 357.595L282.428 352.733C285.964 333.727 281.323 316.268 255.245 316.268C235.797 316.268 225.189 326.655 224.084 339.915H212.371C213.918 321.572 229.167 306.765 255.908 306.765C287.069 306.765 298.561 326.655 294.141 352.512L285.301 403.784C283.754 412.182 287.511 415.497 294.362 415.497H301.213L299.445 425H293.036C279.334 425 272.704 417.486 274.693 404.668L275.135 401.795H274.472Z" fill="black"/>
<path d="M465.787 367.54C442.14 367.761 429.543 368.866 419.377 371.96C406.78 375.496 401.476 382.568 401.476 394.502C401.476 407.762 409.432 414.613 423.355 414.613C444.571 414.613 460.262 397.375 464.461 374.17L465.787 367.54ZM460.262 403.563C451.864 417.486 439.488 426.768 420.924 426.768C399.929 426.768 385.785 415.497 385.785 395.828C385.785 375.275 398.824 363.783 418.051 359.805C431.311 357.153 442.361 356.711 467.555 356.269L468.439 351.628C471.754 332.843 466.229 318.257 443.024 318.257C426.007 318.257 415.178 326.876 413.852 340.357H398.824C400.15 320.909 416.725 306.323 443.908 306.323C475.511 306.323 487.887 325.771 483.246 352.07L474.406 402.016C473.08 409.751 476.395 412.624 482.362 412.624H488.771L486.561 425H479.71C466.229 425 459.599 418.149 460.704 405.552L460.925 403.563H460.262Z" fill="black"/>
<path d="M650.693 368.866C629.477 368.866 617.764 370.192 607.819 373.286C597.653 376.38 592.349 383.231 592.349 392.513C592.349 405.773 599.421 411.077 612.46 411.077C631.245 411.077 645.389 396.491 649.367 375.938L650.693 368.866ZM645.389 405.994C638.096 417.928 625.499 426.768 608.261 426.768C586.603 426.768 572.017 415.718 572.017 394.281C572.017 373.949 585.94 361.794 606.493 358.037C620.637 355.385 631.245 354.722 652.903 354.722L653.787 350.081C657.102 331.738 650.472 320.909 630.582 320.909C616.659 320.909 605.83 327.097 604.283 341.02H585.056C586.161 320.246 604.283 305.66 632.129 305.66C663.953 305.66 677.434 324.666 672.572 351.628L663.953 399.806C662.627 406.657 665.5 408.867 670.583 408.867H676.108L673.456 425H666.163C652.682 425 646.052 418.812 646.052 406.878V405.994H645.389Z" fill="black"/>
<path d="M832.063 371.739C814.825 372.181 805.985 372.844 798.25 375.054C789.631 377.264 784.769 383.01 784.769 391.408C784.769 401.132 790.957 406.436 801.565 406.436C817.919 406.436 828.085 394.502 831.621 375.054L832.063 371.739ZM830.074 408.867C822.56 420.138 809.963 426.989 793.167 426.989C771.73 426.989 755.376 416.381 755.376 392.955C755.376 373.065 768.636 360.468 787.863 356.711C801.565 354.059 808.858 353.617 834.936 352.954L835.599 348.976C838.251 334.39 831.842 325.55 816.814 325.55C805.101 325.55 796.924 331.296 795.819 342.125H767.089C768.857 318.92 789.189 304.555 817.919 304.555C851.069 304.555 869.191 322.014 863.224 355.827L856.152 394.723C855.268 400.248 857.257 402.458 862.119 402.458H867.865L863.887 425H849.522C837.588 425 830.737 419.254 830.737 409.53V408.867H830.074Z" fill="black"/>
<path d="M1016.53 373.286C1001.5 373.949 993.985 374.391 987.576 375.938C979.841 377.706 975.2 382.789 975.2 390.966C975.2 398.701 980.946 403.784 990.007 403.784C1005.26 403.784 1013.21 393.397 1016.31 374.612L1016.53 373.286ZM1016.31 410.414C1008.57 421.464 996.195 426.989 979.62 426.989C958.183 426.989 940.724 416.823 940.724 392.292C940.724 372.623 953.763 359.805 972.327 356.048C985.808 353.396 991.112 352.954 1019.62 351.849L1020.28 348.313C1022.49 335.716 1016.09 327.981 1003.93 327.981C993.322 327.981 986.471 333.506 985.808 342.567H951.774C953.984 318.257 975.421 303.892 1004.81 303.892C1038.63 303.892 1059.18 320.467 1052.55 358.037L1046.58 391.85C1045.7 396.712 1047.47 398.922 1051.89 398.922H1057.85L1053.21 425H1034.87C1024.04 425 1016.97 419.475 1016.97 410.856V410.414H1016.31Z" fill="black"/>
<path d="M1202.32 369.286C1189.28 369.949 1183.09 370.833 1177.12 372.38C1170.49 374.148 1166.96 378.789 1166.96 385.419C1166.96 391.607 1172.04 396.69 1179.33 396.69C1190.6 396.69 1199 387.85 1201.65 373.043L1202.32 369.286ZM1203.64 407.298C1195.69 417.464 1183.97 422.989 1167.18 422.989C1144.86 422.989 1127.18 410.613 1127.18 387.629C1127.18 367.96 1138.67 354.921 1159 351.164C1170.71 348.954 1173.59 348.733 1205.41 347.186L1206.07 343.429C1207.84 333.263 1202.76 327.296 1193.26 327.296C1184.42 327.296 1178.89 331.274 1177.79 339.23H1138.23C1138.89 320.887 1155.91 299.008 1193.48 299.008C1231.27 299.008 1250.5 318.677 1244.31 355.584L1239.45 383.872C1238.78 388.071 1240.33 390.281 1244.31 390.281H1249.17L1243.64 421H1222.43C1210.49 421 1204.97 415.696 1204.97 407.961V407.298H1203.64Z" fill="black"/>
</svg>
