<svg width="1044" height="248" viewBox="0 0 1044 248" fill="none" xmlns="http://www.w3.org/2000/svg">
<path d="M70.87 89.44C70.7433 89.82 70.2367 91.9733 69.35 95.9C68.4633 99.7 67.07 104.577 65.17 110.53L51.68 152.9H90.06L76.76 110.72C75.7467 107.553 74.9233 104.703 74.29 102.17C73.6567 99.51 73.0867 97.23 72.58 95.33C72.0733 93.05 71.63 91.0867 71.25 89.44H70.87ZM97.66 175.7H44.27L33.63 208H3.8L54.53 62.65H89.49L140.98 208H108.3L97.66 175.7ZM174.889 77.47V106.16H197.689V127.06H175.269V172.09C175.269 177.283 176.282 181.083 178.309 183.49C180.462 185.77 184.136 186.91 189.329 186.91C190.216 186.91 191.166 186.91 192.179 186.91C193.192 186.783 194.142 186.657 195.029 186.53C196.042 186.403 196.992 186.277 197.879 186.15V208.19C195.852 208.443 193.066 208.697 189.519 208.95C185.972 209.203 182.046 209.33 177.739 209.33C172.799 209.33 168.302 208.76 164.249 207.62C160.322 206.48 156.966 204.707 154.179 202.3C151.392 199.767 149.239 196.473 147.719 192.42C146.199 188.367 145.439 183.49 145.439 177.79V127.06H130.429V106.35H133.849C137.016 106.35 139.612 106.16 141.639 105.78C143.666 105.273 145.186 104.26 146.199 102.74C147.339 101.22 148.099 99.0667 148.479 96.28C148.859 93.4933 149.049 89.82 149.049 85.26V77.47H174.889ZM203.269 58.28H233.479V208H203.269V58.28ZM282.674 190.14C285.334 190.14 287.867 189.633 290.274 188.62C292.681 187.607 294.771 186.087 296.544 184.06C298.444 181.907 299.964 179.247 301.104 176.08C302.244 172.913 302.814 169.24 302.814 165.06V161.83C294.834 162.337 288.627 162.97 284.194 163.73C279.887 164.49 276.531 165.693 274.124 167.34C272.351 168.48 271.084 169.937 270.324 171.71C269.564 173.483 269.184 175.447 269.184 177.6C269.184 181.273 270.387 184.313 272.794 186.72C275.201 189 278.494 190.14 282.674 190.14ZM243.724 136.37C244.357 126.11 248.474 118.13 256.074 112.43C263.674 106.73 274.187 103.88 287.614 103.88C295.847 103.88 302.751 104.767 308.324 106.54C314.024 108.187 318.584 110.72 322.004 114.14C325.551 117.433 328.084 121.613 329.604 126.68C331.124 131.747 331.884 137.7 331.884 144.54V179.69C331.884 182.477 332.391 184.44 333.404 185.58C334.544 186.72 336.761 187.29 340.054 187.29V208.19H329.984C322.637 208.19 317.064 207.24 313.264 205.34C309.464 203.44 306.741 199.703 305.094 194.13H304.714C301.421 198.943 297.241 202.68 292.174 205.34C287.234 207.873 281.154 209.14 273.934 209.14C263.167 209.14 254.681 206.48 248.474 201.16C242.394 195.84 239.354 188.43 239.354 178.93C239.354 167.403 244.484 158.917 254.744 153.47C260.191 150.557 266.777 148.72 274.504 147.96C282.357 147.073 291.731 146.377 302.624 145.87V140.36C302.624 128.96 297.621 123.26 287.614 123.26C282.674 123.26 279.001 124.527 276.594 127.06C274.187 129.467 272.857 132.57 272.604 136.37H243.724ZM398.001 134.47C397.748 131.177 396.418 128.453 394.011 126.3C391.604 124.02 388.058 122.88 383.371 122.88C378.684 122.88 375.138 123.893 372.731 125.92C370.324 127.947 369.121 130.48 369.121 133.52C369.121 136.433 369.944 138.713 371.591 140.36C373.364 142.007 376.468 143.147 380.901 143.78L398.191 146.06C407.564 147.327 414.784 150.367 419.851 155.18C425.044 159.867 427.641 166.833 427.641 176.08C427.641 181.78 426.501 186.783 424.221 191.09C422.068 195.397 419.028 199.007 415.101 201.92C411.301 204.833 406.678 207.05 401.231 208.57C395.784 210.09 389.831 210.85 383.371 210.85C375.771 210.85 369.248 210.027 363.801 208.38C358.354 206.733 353.794 204.453 350.121 201.54C346.574 198.5 343.851 195.017 341.951 191.09C340.178 187.163 339.101 182.92 338.721 178.36H366.461C366.714 182.033 368.108 185.137 370.641 187.67C373.174 190.203 377.481 191.47 383.561 191.47C388.374 191.47 392.238 190.52 395.151 188.62C398.191 186.72 399.711 183.933 399.711 180.26C399.711 177.22 398.888 174.877 397.241 173.23C395.594 171.583 392.364 170.443 387.551 169.81L371.211 167.53C361.711 166.137 354.364 163.033 349.171 158.22C343.978 153.407 341.381 146.377 341.381 137.13C341.381 132.697 342.204 128.453 343.851 124.4C345.624 120.347 348.221 116.8 351.641 113.76C355.061 110.72 359.431 108.313 364.751 106.54C370.071 104.64 376.341 103.69 383.561 103.69C390.148 103.69 395.911 104.45 400.851 105.97C405.918 107.49 410.161 109.643 413.581 112.43C417.001 115.09 419.598 118.32 421.371 122.12C423.144 125.92 424.221 130.037 424.601 134.47H398.001Z" fill="black"/>
<path d="M327.05 6.97C322.88 6.97 321.5 10.51 321.5 16.6C321.5 23.08 323.06 26.26 326.9 26.26C330.83 26.26 331.97 22.84 331.97 20.59V18.7H326.51V16.42H334.52V28H332.09V25.24H331.97C331.16 26.86 329.42 28.45 326.48 28.45C321.53 28.45 318.59 25.18 318.59 16.63C318.59 8.62 321.74 4.72 327.08 4.72C331.28 4.72 334.13 7.54 334.37 11.14H331.55C331.31 9.01 329.81 6.97 327.05 6.97ZM347.049 14.41C343.239 14.41 341.229 17.02 341.229 21.22V28H338.529V12.19H341.079V16.12H341.139C342.279 13 344.499 11.89 347.649 11.89C348.729 11.89 350.049 12.16 350.799 12.52V15.07C349.719 14.74 348.669 14.41 347.049 14.41ZM359.579 28.39C354.749 28.39 352.199 25.27 352.199 20.08C352.199 14.89 354.839 11.8 359.579 11.8C364.409 11.8 366.959 14.89 366.959 20.08C366.959 25.33 364.319 28.39 359.579 28.39ZM359.579 13.9C356.429 13.9 354.989 16.24 354.989 20.08C354.989 23.92 356.399 26.29 359.579 26.29C362.849 26.29 364.169 23.95 364.169 20.08C364.169 16.24 362.729 13.9 359.579 13.9ZM373.908 23.59V14.44H368.178V12.19H372.438C373.668 12.19 374.088 11.77 374.088 10.54V7.33H376.578V12.19H382.758V14.44H376.578V23.38C376.578 25.45 377.748 26.05 379.398 26.05C380.898 26.05 381.618 25.78 382.758 25.42V27.67C381.888 28 380.778 28.36 379.218 28.36C375.348 28.36 373.908 26.56 373.908 23.59ZM396.308 18.67V18.49C396.218 15.85 395.108 13.87 392.168 13.87C389.468 13.87 387.968 15.82 387.638 18.67H396.308ZM398.798 23.86C398.198 26.59 395.768 28.39 392.288 28.39C387.248 28.39 384.848 24.88 384.848 20.17C384.848 15.49 387.458 11.8 392.198 11.8C397.118 11.8 399.068 15.46 399.068 19.45V20.83H387.578C387.758 24.1 389.198 26.29 392.378 26.29C395.198 26.29 395.918 24.79 396.218 23.86H398.798ZM415.257 16.15H412.647C412.377 14.53 411.057 13.9 409.047 13.9C406.887 13.9 405.717 14.8 405.717 16.27C405.717 17.68 406.617 18.31 408.417 18.61L410.727 19C414.207 19.6 415.587 20.95 415.587 23.44C415.587 26.47 413.547 28.39 408.957 28.39C405.477 28.39 402.897 27.07 402.477 23.53H405.087C405.297 25.06 406.407 26.29 408.957 26.29C411.717 26.29 412.947 25.42 412.947 23.71C412.947 22.27 412.227 21.73 409.887 21.34L407.277 20.89C404.817 20.47 403.137 19.3 403.137 16.45C403.137 13.87 405.147 11.8 409.077 11.8C413.127 11.8 415.017 13.57 415.257 16.15ZM421.397 23.2V28H418.817V4.36H421.397V20.08L428.537 12.19H431.717L425.987 18.34L432.557 28H429.347L424.157 20.23L421.397 23.2Z" fill="black"/>
<path d="M889.33 5.05V7.42H881.98V28H879.19V7.42H871.84V5.05H889.33ZM898.109 28L891.809 12.19H894.689L898.649 22.39C899.219 23.89 899.489 24.85 899.489 24.85H899.609C899.609 24.85 899.909 23.86 900.479 22.33L904.199 12.19H906.929L900.419 28.99C898.979 32.74 897.539 33.97 894.599 33.97C893.399 33.97 892.619 33.79 892.109 33.64V31.39C892.739 31.54 893.549 31.69 894.449 31.69C896.249 31.69 896.879 31.15 897.779 28.84L898.109 28ZM912.709 20.68C912.709 23.8 914.359 26.26 917.539 26.26C920.539 26.26 922.009 24.01 922.009 19.87C922.009 16.51 920.959 13.96 917.509 13.96C914.539 13.96 912.709 16.33 912.709 19V20.68ZM910.099 33.64V12.19H912.709V14.83H912.769C913.759 13.15 915.559 11.8 918.079 11.8C921.589 11.8 924.739 13.87 924.739 19.87C924.739 25.63 921.619 28.39 917.899 28.39C915.469 28.39 913.489 27.1 912.859 25.69H912.799V33.64H910.099ZM939.218 18.67V18.49C939.128 15.85 938.018 13.87 935.078 13.87C932.378 13.87 930.878 15.82 930.548 18.67H939.218ZM941.708 23.86C941.108 26.59 938.678 28.39 935.198 28.39C930.158 28.39 927.758 24.88 927.758 20.17C927.758 15.49 930.368 11.8 935.108 11.8C940.028 11.8 941.978 15.46 941.978 19.45V20.83H930.488C930.668 24.1 932.108 26.29 935.288 26.29C938.108 26.29 938.828 24.79 939.128 23.86H941.708ZM947.908 28L944.998 12.19H947.488L949.198 22.72C949.378 23.71 949.438 25.51 949.438 25.51H949.618C949.618 25.51 949.798 23.65 949.978 22.75L952.198 12.19H954.808L956.968 22.75C957.148 23.65 957.328 25.51 957.328 25.51H957.508C957.508 25.51 957.628 23.65 957.778 22.75L959.428 12.19H961.918L959.008 28H955.948L954.088 19.15C953.758 17.59 953.548 15.52 953.548 15.52H953.368C953.368 15.52 953.158 17.59 952.828 19.15L950.968 28H947.908ZM974.507 14.41C970.697 14.41 968.687 17.02 968.687 21.22V28H965.987V12.19H968.537V16.12H968.597C969.737 13 971.957 11.89 975.107 11.89C976.187 11.89 977.507 12.16 978.257 12.52V15.07C977.177 14.74 976.127 14.41 974.507 14.41ZM985.987 9.22V5.2H990.007V9.22H985.987ZM995.407 28H981.097V25.75H986.917V14.35H981.967V12.19H989.497V25.75H995.407V28ZM1000.47 23.59V14.44H994.736V12.19H998.996C1000.23 12.19 1000.65 11.77 1000.65 10.54V7.33H1003.14V12.19H1009.32V14.44H1003.14V23.38C1003.14 25.45 1004.31 26.05 1005.96 26.05C1007.46 26.05 1008.18 25.78 1009.32 25.42V27.67C1008.45 28 1007.34 28.36 1005.78 28.36C1001.91 28.36 1000.47 26.56 1000.47 23.59ZM1022.87 18.67V18.49C1022.78 15.85 1021.67 13.87 1018.73 13.87C1016.03 13.87 1014.53 15.82 1014.2 18.67H1022.87ZM1025.36 23.86C1024.76 26.59 1022.33 28.39 1018.85 28.39C1013.81 28.39 1011.41 24.88 1011.41 20.17C1011.41 15.49 1014.02 11.8 1018.76 11.8C1023.68 11.8 1025.63 15.46 1025.63 19.45V20.83H1014.14C1014.32 24.1 1015.76 26.29 1018.94 26.29C1021.76 26.29 1022.48 24.79 1022.78 23.86H1025.36ZM1037.17 14.41C1033.36 14.41 1031.35 17.02 1031.35 21.22V28H1028.65V12.19H1031.2V16.12H1031.26C1032.4 13 1034.62 11.89 1037.77 11.89C1038.85 11.89 1040.17 12.16 1040.92 12.52V15.07C1039.84 14.74 1038.79 14.41 1037.17 14.41Z" fill="black"/>
<path d="M444.646 134.646C444.451 134.842 444.451 135.158 444.646 135.354L447.828 138.536C448.024 138.731 448.34 138.731 448.536 138.536C448.731 138.34 448.731 138.024 448.536 137.828L445.707 135L448.536 132.172C448.731 131.976 448.731 131.66 448.536 131.464C448.34 131.269 448.024 131.269 447.828 131.464L444.646 134.646ZM567.354 135.354C567.549 135.158 567.549 134.842 567.354 134.646L564.172 131.464C563.976 131.269 563.66 131.269 563.464 131.464C563.269 131.66 563.269 131.976 563.464 132.172L566.293 135L563.464 137.828C563.269 138.024 563.269 138.34 563.464 138.536C563.66 138.731 563.976 138.731 564.172 138.536L567.354 135.354ZM445 135.5L567 135.5L567 134.5L445 134.5L445 135.5Z" fill="black"/>
</svg>
