<svg width="1198" height="782" viewBox="0 0 1198 782" fill="none" xmlns="http://www.w3.org/2000/svg">
<path fill-rule="evenodd" clip-rule="evenodd" d="M75 0H201V8V24V37V56H175H148V223H125V56H101H75V37V24V8V0ZM148 37H175V24H148V37ZM125 24V37H101V24H125Z" fill="#18151C"/>
<path fill-rule="evenodd" clip-rule="evenodd" d="M173 97H147.565V105H83V131H147.565V659H173V131V105V97Z" fill="#65ABB2"/>
<rect x="1" y="205" width="20" height="72" fill="#65ABB2"/>
<rect y="506" width="20" height="72" fill="#65ABB2"/>
<rect x="173" y="503" width="23" height="84" fill="#24A172"/>
<rect x="173" y="126" width="23" height="84" fill="#24A172"/>
<path fill-rule="evenodd" clip-rule="evenodd" d="M79 702H56V722V745V759V782H79H173H196V759V745V722V720H173V722H79V702ZM173 759V745H79V759H173Z" fill="#24A172"/>
<rect x="50" y="203" width="54" height="84" fill="#514C49"/>
<rect x="50" y="500" width="54" height="84" fill="#514C49"/>
<path fill-rule="evenodd" clip-rule="evenodd" d="M51 103H23V629V657H51H121V629H51V103Z" fill="#FBE373"/>
<path fill-rule="evenodd" clip-rule="evenodd" d="M84 63H56V682V708V745H84V708H122V731H148V708H158V731H184V708H219V682H184H158H148V554H122V682H84V63Z" fill="#151412"/>
<path fill-rule="evenodd" clip-rule="evenodd" d="M220 65H93V90H195V708H220V90V65Z" fill="#E21E08"/>
<path fill-rule="evenodd" clip-rule="evenodd" d="M243 355H189V378H228V403H189V427H243V355Z" fill="#514C49"/>
<circle cx="932" cy="77" r="38" fill="#FBE373"/>
<circle cx="932" cy="157" r="38" fill="#FBE373"/>
<circle cx="932" cy="237" r="38" fill="#FBE373"/>
<circle cx="932" cy="317" r="38" fill="#FBE373"/>
<circle cx="932" cy="397" r="38" fill="#FBE373"/>
<circle cx="932" cy="477" r="38" fill="#FBE373"/>
<circle cx="932" cy="557" r="38" fill="#FBE373"/>
<circle cx="932" cy="637" r="38" fill="#FBE373"/>
<circle cx="1008" cy="77" r="38" fill="#F9FFD9"/>
<circle cx="1008" cy="157" r="38" fill="#FBE373"/>
<circle cx="1008" cy="237" r="38" fill="#FBE373"/>
<circle cx="1008" cy="317" r="38" fill="#FBE373"/>
<circle cx="1008" cy="397" r="38" fill="#FBE373"/>
<circle cx="1008" cy="477" r="38" fill="#FBE373"/>
<circle cx="1008" cy="557" r="38" fill="#FBE373"/>
<circle cx="1008" cy="637" r="38" fill="#FBE373"/>
<circle cx="1008" cy="717" r="38" fill="#FBE373"/>
<circle cx="1084" cy="77" r="38" fill="#FBE373"/>
<circle cx="1084" cy="157" r="38" fill="#FBE373"/>
<circle cx="1084" cy="237" r="38" fill="#FBE373"/>
<circle cx="1084" cy="317" r="38" fill="#FBE373"/>
<circle cx="1084" cy="397" r="38" fill="#FBE373"/>
<circle cx="1084" cy="477" r="38" fill="#FBE373"/>
<circle cx="1084" cy="557" r="38" fill="#FBE373"/>
<circle cx="1084" cy="637" r="38" fill="#FBE373"/>
<circle cx="1160" cy="77" r="38" fill="#F9FFD9"/>
<circle cx="1160" cy="157" r="38" fill="#FBE373"/>
<circle cx="1160" cy="237" r="38" fill="#FBE373"/>
<circle cx="1160" cy="317" r="38" fill="#FBE373"/>
<circle cx="1160" cy="397" r="38" fill="#FBE373"/>
<circle cx="1160" cy="477" r="38" fill="#FBE373"/>
<circle cx="1160" cy="557" r="38" fill="#FBE373"/>
<circle cx="1160" cy="637" r="38" fill="#FBE373"/>
<circle cx="1160" cy="717" r="38" fill="#FBE373"/>
<rect x="220" y="181" width="767" height="25" fill="#65ABB2"/>
<rect x="264" y="219" width="723" height="25" fill="#65ABB2"/>
<rect x="290" y="257" width="697" height="25" fill="#65ABB2"/>
<rect x="315" y="295" width="672" height="25" fill="#65ABB2"/>
<rect x="333" y="333" width="654" height="25" fill="#65ABB2"/>
<rect x="338" y="371" width="649" height="25" fill="#65ABB2"/>
<rect x="335" y="409" width="652" height="25" fill="#65ABB2"/>
<rect x="332" y="447" width="655" height="25" fill="#65ABB2"/>
<rect x="314" y="485" width="673" height="25" fill="#65ABB2"/>
<rect x="286" y="523" width="701" height="25" fill="#65ABB2"/>
<rect x="262" y="561" width="725" height="25" fill="#65ABB2"/>
<rect x="243" y="599" width="744" height="25" fill="#65ABB2"/>
<rect x="220" y="637" width="767" height="25" fill="#65ABB2"/>
<rect x="320.903" y="395.696" width="129.642" height="23.0477" transform="rotate(-2.41881 320.903 395.696)" fill="#24A172"/>
<rect width="40.4832" height="23.0477" transform="matrix(-0.999109 0.0422036 0.0422036 0.999109 490.877 388.516)" fill="#14171A"/>
<rect x="321.508" y="423.519" width="129.642" height="23.0477" transform="rotate(5.39254 321.508 423.519)" fill="#24A172"/>
<rect width="40.4832" height="23.0477" transform="matrix(-0.995574 -0.0939786 -0.0939786 0.995574 490.881 439.507)" fill="#14171A"/>
<rect x="317.318" y="450.217" width="129.642" height="23.0477" transform="rotate(14.0085 317.318 450.217)" fill="#24A172"/>
<rect width="40.4832" height="23.0477" transform="matrix(-0.97026 -0.242066 -0.242066 0.97026 482.384 491.398)" fill="#14171A"/>
<rect x="304.359" y="483.633" width="129.642" height="23.0477" transform="rotate(19.7717 304.359 483.633)" fill="#24A172"/>
<rect width="40.4832" height="23.0477" transform="matrix(-0.941048 -0.338273 -0.338273 0.941048 464.455 541.182)" fill="#14171A"/>
<rect x="288.444" y="510.166" width="129.642" height="23.0477" transform="rotate(26.947 288.444 510.166)" fill="#24A172"/>
<rect width="40.4832" height="23.0477" transform="matrix(-0.891426 -0.453166 -0.453166 0.891426 440.098 587.261)" fill="#14171A"/>
<rect x="269.915" y="540.975" width="129.642" height="23.0477" transform="rotate(31.8224 269.915 540.975)" fill="#24A172"/>
<rect width="40.4832" height="23.0477" transform="matrix(-0.849687 -0.527287 -0.527287 0.849687 414.469 630.68)" fill="#14171A"/>
<rect x="256.322" y="570.681" width="129.642" height="23.0477" transform="rotate(39.3861 256.322 570.681)" fill="#24A172"/>
<rect width="40.4832" height="23.0477" transform="matrix(-0.772888 -0.634543 -0.634543 0.772888 387.81 678.633)" fill="#14171A"/>
<rect x="236.239" y="595.364" width="129.642" height="23.0477" transform="rotate(45.6933 236.239 595.364)" fill="#24A172"/>
<rect width="40.4832" height="23.0477" transform="matrix(-0.698499 -0.715611 -0.715611 0.698499 355.072 717.107)" fill="#14171A"/>
<rect x="317.609" y="367.863" width="129.642" height="23.0477" transform="rotate(-9.72598 317.609 367.863)" fill="#24A172"/>
<rect width="40.4832" height="23.0477" transform="matrix(-0.985627 0.168936 0.168936 0.985627 485.289 339.123)" fill="#14171A"/>
<rect x="309.43" y="341.923" width="129.642" height="23.0477" transform="rotate(-18.4988 309.43 341.923)" fill="#24A172"/>
<rect width="40.4832" height="23.0477" transform="matrix(-0.94833 0.317284 0.317284 0.94833 470.765 287.945)" fill="#14171A"/>
<rect x="297.892" y="318.496" width="129.642" height="23.0477" transform="rotate(-27.7466 297.892 318.496)" fill="#24A172"/>
<rect width="40.4832" height="23.0477" transform="matrix(-0.885015 0.465562 0.465562 0.885015 448.455 239.291)" fill="#14171A"/>
<rect x="280.193" y="293.622" width="129.642" height="23.0477" transform="rotate(-35.1614 280.193 293.622)" fill="#24A172"/>
<rect width="40.4832" height="23.0477" transform="matrix(-0.817533 0.575882 0.575882 0.817533 419.276 195.65)" fill="#14171A"/>
<rect x="259.165" y="275.287" width="129.642" height="23.0477" transform="rotate(-43.6287 259.165 275.287)" fill="#24A172"/>
<rect width="40.4832" height="23.0477" transform="matrix(-0.723826 0.689982 0.689982 0.723826 382.306 157.903)" fill="#14171A"/>
<rect x="238.805" y="255.333" width="129.642" height="23.0477" transform="rotate(-51.2489 238.805 255.333)" fill="#24A172"/>
<rect width="40.4832" height="23.0477" transform="matrix(-0.625938 0.779873 0.779873 0.625938 345.293 122.657)" fill="#14171A"/>
<rect x="214.997" y="241.734" width="129.642" height="23.0477" transform="rotate(-59.0626 214.997 241.734)" fill="#24A172"/>
<rect width="40.4832" height="23.0477" transform="matrix(-0.514102 0.857729 0.857729 0.514102 302.459 95.812)" fill="#14171A"/>
</svg>
