<svg width="1200" height="1355" viewBox="0 0 1200 1355" fill="none" xmlns="http://www.w3.org/2000/svg">
<rect x="-14" y="14" width="1172" height="1327" transform="matrix(1 0 0 -1 28 1355)" fill="#F9FFD9"/>
<rect x="-14" y="14" width="1172" height="1327" transform="matrix(1 0 0 -1 28 1355)" stroke="#24A172" stroke-width="28"/>
<rect x="28" y="1009" width="1144" height="182" fill="#24A172"/>
<rect x="462" y="1009" width="2" height="182" fill="black"/>
<rect x="684" y="948" width="2" height="243" fill="black"/>
<rect x="923" y="1009" width="2" height="182" fill="black"/>
<path d="M535.71 1255.96H532.92C532.68 1254.52 531.39 1252.93 528.96 1252.93C525.9 1252.93 524.52 1255.33 524.52 1259.02C524.52 1262.83 525.63 1265.23 528.96 1265.23C531.75 1265.23 532.86 1263.16 533.07 1261.84H535.8C535.32 1265.32 532.53 1267.39 528.96 1267.39C524.19 1267.39 521.73 1264.36 521.7 1259.14C521.67 1254.07 524.43 1250.8 529.11 1250.8C532.32 1250.8 535.17 1252.27 535.71 1255.96ZM542.329 1260.73C542.329 1260.91 542.319 1261.17 542.299 1261.51C542.299 1261.83 542.289 1262.18 542.269 1262.56C542.249 1262.92 542.229 1263.27 542.209 1263.61C542.189 1263.93 542.169 1264.19 542.149 1264.39L550.759 1250.92H553.999V1267H551.539V1257.52C551.539 1257.2 551.539 1256.78 551.539 1256.26C551.559 1255.74 551.579 1255.23 551.599 1254.73C551.619 1254.21 551.639 1253.82 551.659 1253.56L543.109 1267H539.839V1250.92H542.329V1260.73ZM575.467 1250.92V1267H573.097V1256.74C573.097 1256.32 573.107 1255.88 573.127 1255.42C573.167 1254.96 573.207 1254.51 573.247 1254.07H573.157L567.907 1267H565.687L560.587 1254.07H560.497C560.537 1254.51 560.557 1254.96 560.557 1255.42C560.577 1255.88 560.587 1256.35 560.587 1256.83V1267H558.217V1250.92H561.727L566.797 1263.85L571.957 1250.92H575.467ZM596.95 1250.92V1267H594.58V1256.74C594.58 1256.32 594.59 1255.88 594.61 1255.42C594.65 1254.96 594.69 1254.51 594.73 1254.07H594.64L589.39 1267H587.17L582.07 1254.07H581.98C582.02 1254.51 582.04 1254.96 582.04 1255.42C582.06 1255.88 582.07 1256.35 582.07 1256.83V1267H579.7V1250.92H583.21L588.28 1263.85L593.44 1250.92H596.95ZM607.392 1250.62C608.772 1250.62 609.952 1250.92 610.932 1251.52C611.932 1252.12 612.692 1252.97 613.212 1254.07C613.752 1255.15 614.022 1256.42 614.022 1257.88V1259.47H603.012C603.052 1261.29 603.512 1262.68 604.392 1263.64C605.292 1264.58 606.542 1265.05 608.142 1265.05C609.162 1265.05 610.062 1264.96 610.842 1264.78C611.642 1264.58 612.462 1264.3 613.302 1263.94V1266.25C612.482 1266.61 611.672 1266.87 610.872 1267.03C610.072 1267.21 609.122 1267.3 608.022 1267.3C606.502 1267.3 605.152 1266.99 603.972 1266.37C602.812 1265.75 601.902 1264.83 601.242 1263.61C600.602 1262.37 600.282 1260.86 600.282 1259.08C600.282 1257.32 600.572 1255.81 601.152 1254.55C601.752 1253.29 602.582 1252.32 603.642 1251.64C604.722 1250.96 605.972 1250.62 607.392 1250.62ZM607.362 1252.78C606.102 1252.78 605.102 1253.19 604.362 1254.01C603.642 1254.81 603.212 1255.93 603.072 1257.37H611.262C611.262 1256.45 611.122 1255.65 610.842 1254.97C610.562 1254.29 610.132 1253.76 609.552 1253.38C608.992 1252.98 608.262 1252.78 607.362 1252.78ZM628.316 1253.14H623.066V1267H620.456V1253.14H615.266V1250.92H628.316V1253.14ZM638.234 1250.62C640.214 1250.62 641.804 1251.31 643.004 1252.69C644.224 1254.07 644.834 1256.15 644.834 1258.93C644.834 1260.75 644.554 1262.29 643.994 1263.55C643.454 1264.79 642.684 1265.73 641.684 1266.37C640.704 1266.99 639.544 1267.3 638.204 1267.3C637.384 1267.3 636.654 1267.19 636.014 1266.97C635.374 1266.75 634.824 1266.47 634.364 1266.13C633.924 1265.77 633.544 1265.38 633.224 1264.96H633.044C633.084 1265.3 633.124 1265.73 633.164 1266.25C633.204 1266.77 633.224 1267.22 633.224 1267.6V1274.2H630.584V1250.92H632.744L633.104 1253.11H633.224C633.544 1252.65 633.924 1252.23 634.364 1251.85C634.824 1251.47 635.364 1251.17 635.984 1250.95C636.624 1250.73 637.374 1250.62 638.234 1250.62ZM637.754 1252.84C636.674 1252.84 635.804 1253.05 635.144 1253.47C634.484 1253.87 634.004 1254.48 633.704 1255.3C633.404 1256.12 633.244 1257.16 633.224 1258.42V1258.93C633.224 1260.25 633.364 1261.37 633.644 1262.29C633.924 1263.21 634.394 1263.91 635.054 1264.39C635.734 1264.87 636.654 1265.11 637.814 1265.11C638.794 1265.11 639.594 1264.84 640.214 1264.3C640.854 1263.76 641.324 1263.03 641.624 1262.11C641.944 1261.17 642.104 1260.1 642.104 1258.9C642.104 1257.06 641.744 1255.59 641.024 1254.49C640.324 1253.39 639.234 1252.84 637.754 1252.84ZM650.631 1260.73C650.631 1260.91 650.621 1261.17 650.601 1261.51C650.601 1261.83 650.591 1262.18 650.571 1262.56C650.551 1262.92 650.531 1263.27 650.511 1263.61C650.491 1263.93 650.471 1264.19 650.451 1264.39L659.061 1250.92H662.301V1267H659.841V1257.52C659.841 1257.2 659.841 1256.78 659.841 1256.26C659.861 1255.74 659.881 1255.23 659.901 1254.73C659.921 1254.21 659.941 1253.82 659.961 1253.56L651.411 1267H648.141V1250.92H650.631V1260.73ZM667.508 1267H664.448L669.038 1260.25C668.418 1260.09 667.818 1259.84 667.238 1259.5C666.658 1259.14 666.188 1258.65 665.828 1258.03C665.468 1257.39 665.288 1256.6 665.288 1255.66C665.288 1254.12 665.808 1252.95 666.848 1252.15C667.888 1251.33 669.268 1250.92 670.988 1250.92H678.188V1267H675.548V1260.61H671.648L667.508 1267ZM667.838 1255.69C667.838 1256.61 668.178 1257.3 668.858 1257.76C669.558 1258.2 670.528 1258.42 671.768 1258.42H675.548V1253.11H671.258C670.038 1253.11 669.158 1253.35 668.618 1253.83C668.098 1254.31 667.838 1254.93 667.838 1255.69Z" fill="black"/>
<circle cx="155.5" cy="168.5" r="60.5" stroke="black" stroke-width="2" stroke-dasharray="4 4"/>
<circle cx="331.5" cy="363.5" r="57.5" stroke="black" stroke-width="2" stroke-dasharray="4 4"/>
<circle cx="766" cy="295" r="59" stroke="black" stroke-width="2" stroke-dasharray="4 4"/>
<circle cx="1016" cy="331" r="59" stroke="black" stroke-width="2" stroke-dasharray="4 4"/>
<path d="M1061 739.5C1064 754.5 1070 763.5 1112 758.5V787.5C1063 793 1029.2 789.7 1026 740.5V614.5H990V588.5C1019 587 1030.5 593.5 1029 530H1061V588H1110V614.5H1061V634.5L1060.88 687.125L1061 739.5Z" fill="black"/>
<path d="M807.646 659.646C807.451 659.842 807.451 660.158 807.646 660.354L810.828 663.536C811.024 663.731 811.34 663.731 811.536 663.536C811.731 663.34 811.731 663.024 811.536 662.828L808.707 660L811.536 657.172C811.731 656.976 811.731 656.66 811.536 656.464C811.34 656.269 811.024 656.269 810.828 656.464L807.646 659.646ZM970.354 660.354C970.549 660.158 970.549 659.842 970.354 659.646L967.172 656.464C966.976 656.269 966.66 656.269 966.464 656.464C966.269 656.66 966.269 656.976 966.464 657.172L969.293 660L966.464 662.828C966.269 663.024 966.269 663.34 966.464 663.536C966.66 663.731 966.976 663.731 967.172 663.536L970.354 660.354ZM808 660.5H970V659.5H808V660.5Z" fill="black"/>
<path d="M571.03 413.92H573.85L577.33 423.07C577.53 423.61 577.71 424.13 577.87 424.63C578.05 425.13 578.21 425.62 578.35 426.1C578.49 426.56 578.6 427.01 578.68 427.45H578.8C578.92 426.95 579.11 426.3 579.37 425.5C579.63 424.68 579.9 423.86 580.18 423.04L583.45 413.92H586.3L579.37 432.22C578.99 433.22 578.54 434.09 578.02 434.83C577.52 435.59 576.9 436.17 576.16 436.57C575.44 436.99 574.56 437.2 573.52 437.2C573.04 437.2 572.62 437.17 572.26 437.11C571.9 437.07 571.59 437.02 571.33 436.96V434.86C571.55 434.9 571.81 434.94 572.11 434.98C572.43 435.02 572.76 435.04 573.1 435.04C573.72 435.04 574.25 434.92 574.69 434.68C575.15 434.46 575.54 434.13 575.86 433.69C576.18 433.27 576.45 432.77 576.67 432.19L577.51 430.06L571.03 413.92ZM593.373 413.62C594.593 413.62 595.653 413.79 596.553 414.13C597.453 414.45 598.153 414.93 598.653 415.57C599.153 416.19 599.403 416.95 599.403 417.85C599.403 418.83 599.133 419.61 598.593 420.19C598.053 420.75 597.313 421.16 596.373 421.42V421.54C597.013 421.72 597.603 421.97 598.143 422.29C598.683 422.61 599.113 423.03 599.433 423.55C599.773 424.07 599.943 424.74 599.943 425.56C599.943 426.44 599.693 427.24 599.193 427.96C598.713 428.68 597.963 429.25 596.943 429.67C595.943 430.09 594.653 430.3 593.073 430.3C592.313 430.3 591.583 430.26 590.883 430.18C590.203 430.1 589.583 429.98 589.023 429.82C588.483 429.66 588.003 429.47 587.583 429.25V426.88C588.263 427.2 589.063 427.49 589.983 427.75C590.923 428.01 591.943 428.14 593.043 428.14C593.843 428.14 594.563 428.05 595.203 427.87C595.863 427.69 596.383 427.41 596.763 427.03C597.143 426.63 597.333 426.09 597.333 425.41C597.333 424.79 597.163 424.29 596.823 423.91C596.483 423.51 595.973 423.21 595.293 423.01C594.633 422.81 593.783 422.71 592.743 422.71H590.583V420.55H592.323C593.703 420.55 594.803 420.37 595.623 420.01C596.463 419.63 596.883 418.99 596.883 418.09C596.883 417.33 596.563 416.76 595.923 416.38C595.303 416 594.403 415.81 593.223 415.81C592.343 415.81 591.563 415.9 590.883 416.08C590.223 416.24 589.493 416.49 588.693 416.83L587.763 414.73C588.623 414.35 589.523 414.07 590.463 413.89C591.403 413.71 592.373 413.62 593.373 413.62ZM608.26 413.62C609.64 413.62 610.82 413.92 611.8 414.52C612.8 415.12 613.56 415.97 614.08 417.07C614.62 418.15 614.89 419.42 614.89 420.88V422.47H603.88C603.92 424.29 604.38 425.68 605.26 426.64C606.16 427.58 607.41 428.05 609.01 428.05C610.03 428.05 610.93 427.96 611.71 427.78C612.51 427.58 613.33 427.3 614.17 426.94V429.25C613.35 429.61 612.54 429.87 611.74 430.03C610.94 430.21 609.99 430.3 608.89 430.3C607.37 430.3 606.02 429.99 604.84 429.37C603.68 428.75 602.77 427.83 602.11 426.61C601.47 425.37 601.15 423.86 601.15 422.08C601.15 420.32 601.44 418.81 602.02 417.55C602.62 416.29 603.45 415.32 604.51 414.64C605.59 413.96 606.84 413.62 608.26 413.62ZM608.23 415.78C606.97 415.78 605.97 416.19 605.23 417.01C604.51 417.81 604.08 418.93 603.94 420.37H612.13C612.13 419.45 611.99 418.65 611.71 417.97C611.43 417.29 611 416.76 610.42 416.38C609.86 415.98 609.13 415.78 608.23 415.78ZM630.024 430H627.354V416.11H622.614C622.414 418.65 622.164 420.82 621.864 422.62C621.564 424.4 621.184 425.85 620.724 426.97C620.264 428.09 619.714 428.91 619.074 429.43C618.434 429.95 617.684 430.21 616.824 430.21C616.564 430.21 616.304 430.19 616.044 430.15C615.804 430.13 615.604 430.08 615.444 430V428.02C615.564 428.06 615.694 428.09 615.834 428.11C615.974 428.13 616.114 428.14 616.254 428.14C616.694 428.14 617.094 427.96 617.454 427.6C617.814 427.24 618.134 426.69 618.414 425.95C618.714 425.21 618.984 424.28 619.224 423.16C619.464 422.02 619.674 420.68 619.854 419.14C620.034 417.6 620.194 415.86 620.334 413.92H630.024V430Z" fill="black"/>
<path d="M384.06 92.92H386.94L380.07 100.66L387.51 109H384.45L377.19 100.84V109H374.55V92.92H377.19V100.72L384.06 92.92ZM402.023 100.93C402.023 102.27 401.843 103.46 401.483 104.5C401.143 105.52 400.643 106.39 399.983 107.11C399.343 107.83 398.553 108.38 397.613 108.76C396.693 109.12 395.663 109.3 394.523 109.3C393.463 109.3 392.483 109.12 391.583 108.76C390.683 108.38 389.903 107.83 389.243 107.11C388.583 106.39 388.063 105.52 387.683 104.5C387.323 103.46 387.143 102.27 387.143 100.93C387.143 99.15 387.443 97.65 388.043 96.43C388.643 95.19 389.503 94.25 390.623 93.61C391.743 92.95 393.073 92.62 394.613 92.62C396.073 92.62 397.353 92.95 398.453 93.61C399.573 94.25 400.443 95.19 401.063 96.43C401.703 97.65 402.023 99.15 402.023 100.93ZM389.873 100.93C389.873 102.19 390.033 103.29 390.353 104.23C390.693 105.15 391.213 105.86 391.913 106.36C392.613 106.86 393.503 107.11 394.583 107.11C395.663 107.11 396.553 106.86 397.253 106.36C397.953 105.86 398.463 105.15 398.783 104.23C399.123 103.29 399.293 102.19 399.293 100.93C399.293 99.65 399.123 98.56 398.783 97.66C398.443 96.76 397.923 96.07 397.223 95.59C396.543 95.09 395.653 94.84 394.553 94.84C392.913 94.84 391.723 95.38 390.983 96.46C390.243 97.54 389.873 99.03 389.873 100.93ZM407.047 92.92V99.61H415.777V92.92H418.417V109H415.777V101.83H407.047V109H404.407V92.92H407.047ZM437.579 114.58H434.999V109H421.709V92.92H424.349V106.78H432.659V92.92H435.299V106.81H437.579V114.58ZM445.074 92.62C446.454 92.62 447.634 92.92 448.614 93.52C449.614 94.12 450.374 94.97 450.894 96.07C451.434 97.15 451.704 98.42 451.704 99.88V101.47H440.694C440.734 103.29 441.194 104.68 442.074 105.64C442.974 106.58 444.224 107.05 445.824 107.05C446.844 107.05 447.744 106.96 448.524 106.78C449.324 106.58 450.144 106.3 450.984 105.94V108.25C450.164 108.61 449.354 108.87 448.554 109.03C447.754 109.21 446.804 109.3 445.704 109.3C444.184 109.3 442.834 108.99 441.654 108.37C440.494 107.75 439.584 106.83 438.924 105.61C438.284 104.37 437.964 102.86 437.964 101.08C437.964 99.32 438.254 97.81 438.834 96.55C439.434 95.29 440.264 94.32 441.324 93.64C442.404 92.96 443.654 92.62 445.074 92.62ZM445.044 94.78C443.784 94.78 442.784 95.19 442.044 96.01C441.324 96.81 440.894 97.93 440.754 99.37H448.944C448.944 98.45 448.804 97.65 448.524 96.97C448.244 96.29 447.814 95.76 447.234 95.38C446.674 94.98 445.944 94.78 445.044 94.78ZM466.927 96.97C466.927 97.97 466.627 98.75 466.027 99.31C465.427 99.87 464.657 100.25 463.717 100.45V100.57C464.717 100.71 465.587 101.07 466.327 101.65C467.067 102.21 467.437 103.09 467.437 104.29C467.437 104.97 467.307 105.6 467.047 106.18C466.807 106.76 466.427 107.26 465.907 107.68C465.387 108.1 464.717 108.43 463.897 108.67C463.077 108.89 462.087 109 460.927 109H453.997V92.92H460.897C462.037 92.92 463.057 93.05 463.957 93.31C464.877 93.55 465.597 93.97 466.117 94.57C466.657 95.15 466.927 95.95 466.927 96.97ZM464.707 104.29C464.707 103.37 464.357 102.71 463.657 102.31C462.957 101.91 461.927 101.71 460.567 101.71H456.637V106.87H460.627C461.947 106.87 462.957 106.68 463.657 106.3C464.357 105.9 464.707 105.23 464.707 104.29ZM464.257 97.3C464.257 96.54 463.977 95.99 463.417 95.65C462.877 95.29 461.987 95.11 460.747 95.11H456.637V99.52H460.267C461.567 99.52 462.557 99.34 463.237 98.98C463.917 98.62 464.257 98.06 464.257 97.3ZM483.462 100.93C483.462 102.27 483.282 103.46 482.922 104.5C482.582 105.52 482.082 106.39 481.422 107.11C480.782 107.83 479.992 108.38 479.052 108.76C478.132 109.12 477.102 109.3 475.962 109.3C474.902 109.3 473.922 109.12 473.022 108.76C472.122 108.38 471.342 107.83 470.682 107.11C470.022 106.39 469.502 105.52 469.122 104.5C468.762 103.46 468.582 102.27 468.582 100.93C468.582 99.15 468.882 97.65 469.482 96.43C470.082 95.19 470.942 94.25 472.062 93.61C473.182 92.95 474.512 92.62 476.052 92.62C477.512 92.62 478.792 92.95 479.892 93.61C481.012 94.25 481.882 95.19 482.502 96.43C483.142 97.65 483.462 99.15 483.462 100.93ZM471.312 100.93C471.312 102.19 471.472 103.29 471.792 104.23C472.132 105.15 472.652 105.86 473.352 106.36C474.052 106.86 474.942 107.11 476.022 107.11C477.102 107.11 477.992 106.86 478.692 106.36C479.392 105.86 479.902 105.15 480.222 104.23C480.562 103.29 480.732 102.19 480.732 100.93C480.732 99.65 480.562 98.56 480.222 97.66C479.882 96.76 479.362 96.07 478.662 95.59C477.982 95.09 477.092 94.84 475.992 94.84C474.352 94.84 473.162 95.38 472.422 96.46C471.682 97.54 471.312 99.03 471.312 100.93ZM498.866 86.26C498.786 87.26 498.536 88.1 498.116 88.78C497.716 89.46 497.116 89.97 496.316 90.31C495.516 90.65 494.476 90.82 493.196 90.82C491.896 90.82 490.846 90.65 490.046 90.31C489.266 89.97 488.696 89.47 488.336 88.81C487.976 88.13 487.756 87.28 487.676 86.26H490.136C490.236 87.34 490.516 88.07 490.976 88.45C491.456 88.81 492.216 88.99 493.256 88.99C494.176 88.99 494.896 88.8 495.416 88.42C495.956 88.02 496.276 87.3 496.376 86.26H498.866ZM488.336 102.73C488.336 102.91 488.326 103.17 488.306 103.51C488.306 103.83 488.296 104.18 488.276 104.56C488.256 104.92 488.236 105.27 488.216 105.61C488.196 105.93 488.176 106.19 488.156 106.39L496.766 92.92H500.006V109H497.546V99.52C497.546 99.2 497.546 98.78 497.546 98.26C497.566 97.74 497.586 97.23 497.606 96.73C497.626 96.21 497.646 95.82 497.666 95.56L489.116 109H485.846V92.92H488.336V102.73ZM523.293 109.3C522.373 109.3 521.573 109.22 520.893 109.06C520.233 108.92 519.613 108.71 519.033 108.43V106.15C519.633 106.39 520.283 106.6 520.983 106.78C521.683 106.96 522.473 107.05 523.353 107.05C524.393 107.05 525.293 106.87 526.053 106.51C526.813 106.13 527.413 105.55 527.853 104.77C528.293 103.99 528.543 103 528.603 101.8H520.683V99.64H528.573C528.433 98 527.963 96.8 527.163 96.04C526.383 95.28 525.233 94.9 523.713 94.9C523.133 94.9 522.493 94.98 521.793 95.14C521.113 95.3 520.503 95.48 519.963 95.68L519.213 93.55C519.793 93.29 520.483 93.07 521.283 92.89C522.083 92.71 522.883 92.62 523.683 92.62C525.183 92.62 526.503 92.9 527.643 93.46C528.803 94.02 529.703 94.91 530.343 96.13C531.003 97.35 531.333 98.96 531.333 100.96C531.333 102.86 530.983 104.43 530.283 105.67C529.603 106.91 528.653 107.83 527.433 108.43C526.233 109.01 524.853 109.3 523.293 109.3ZM545.978 109H543.308V95.11H538.568C538.368 97.65 538.118 99.82 537.818 101.62C537.518 103.4 537.138 104.85 536.678 105.97C536.218 107.09 535.668 107.91 535.028 108.43C534.388 108.95 533.638 109.21 532.778 109.21C532.518 109.21 532.258 109.19 531.998 109.15C531.758 109.13 531.558 109.08 531.398 109V107.02C531.518 107.06 531.648 107.09 531.788 107.11C531.928 107.13 532.068 107.14 532.208 107.14C532.648 107.14 533.048 106.96 533.408 106.6C533.768 106.24 534.088 105.69 534.368 104.95C534.668 104.21 534.938 103.28 535.178 102.16C535.418 101.02 535.628 99.68 535.808 98.14C535.988 96.6 536.148 94.86 536.288 92.92H545.978V109ZM555.491 92.62C556.871 92.62 558.051 92.92 559.031 93.52C560.031 94.12 560.791 94.97 561.311 96.07C561.851 97.15 562.121 98.42 562.121 99.88V101.47H551.111C551.151 103.29 551.611 104.68 552.491 105.64C553.391 106.58 554.641 107.05 556.241 107.05C557.261 107.05 558.161 106.96 558.941 106.78C559.741 106.58 560.561 106.3 561.401 105.94V108.25C560.581 108.61 559.771 108.87 558.971 109.03C558.171 109.21 557.221 109.3 556.121 109.3C554.601 109.3 553.251 108.99 552.071 108.37C550.911 107.75 550.001 106.83 549.341 105.61C548.701 104.37 548.381 102.86 548.381 101.08C548.381 99.32 548.671 97.81 549.251 96.55C549.851 95.29 550.681 94.32 551.741 93.64C552.821 92.96 554.071 92.62 555.491 92.62ZM555.461 94.78C554.201 94.78 553.201 95.19 552.461 96.01C551.741 96.81 551.311 97.93 551.171 99.37H559.361C559.361 98.45 559.221 97.65 558.941 96.97C558.661 96.29 558.231 95.76 557.651 95.38C557.091 94.98 556.361 94.78 555.461 94.78ZM581.665 92.92V109H579.295V98.74C579.295 98.32 579.305 97.88 579.325 97.42C579.365 96.96 579.405 96.51 579.445 96.07H579.355L574.105 109H571.885L566.785 96.07H566.695C566.735 96.51 566.755 96.96 566.755 97.42C566.775 97.88 566.785 98.35 566.785 98.83V109H564.415V92.92H567.925L572.995 105.85L578.155 92.92H581.665ZM591.208 92.62C592.588 92.62 593.768 92.92 594.748 93.52C595.748 94.12 596.508 94.97 597.028 96.07C597.568 97.15 597.838 98.42 597.838 99.88V101.47H586.828C586.868 103.29 587.328 104.68 588.208 105.64C589.108 106.58 590.358 107.05 591.958 107.05C592.978 107.05 593.878 106.96 594.658 106.78C595.458 106.58 596.278 106.3 597.118 105.94V108.25C596.298 108.61 595.488 108.87 594.688 109.03C593.888 109.21 592.938 109.3 591.838 109.3C590.318 109.3 588.968 108.99 587.788 108.37C586.628 107.75 585.718 106.83 585.058 105.61C584.418 104.37 584.098 102.86 584.098 101.08C584.098 99.32 584.388 97.81 584.968 96.55C585.568 95.29 586.398 94.32 587.458 93.64C588.538 92.96 589.788 92.62 591.208 92.62ZM591.178 94.78C589.918 94.78 588.918 95.19 588.178 96.01C587.458 96.81 587.028 97.93 586.888 99.37H595.078C595.078 98.45 594.938 97.65 594.658 96.97C594.378 96.29 593.948 95.76 593.368 95.38C592.808 94.98 592.078 94.78 591.178 94.78ZM602.771 92.92V99.61H611.501V92.92H614.141V109H611.501V101.83H602.771V109H600.131V92.92H602.771ZM628.533 95.14H623.283V109H620.673V95.14H615.483V92.92H628.533V95.14Z" fill="black"/>
<path d="M210.65 841.22V837.2H214.67V841.22H210.65ZM220.07 860H205.76V857.75H211.58V846.35H206.63V844.19H214.16V857.75H220.07V860ZM228.729 855.59V846.44H222.999V844.19H227.259C228.489 844.19 228.909 843.77 228.909 842.54V839.33H231.399V844.19H237.579V846.44H231.399V855.38C231.399 857.45 232.569 858.05 234.219 858.05C235.719 858.05 236.439 857.78 237.579 857.42V859.67C236.709 860 235.599 860.36 234.039 860.36C230.169 860.36 228.729 858.56 228.729 855.59ZM244.889 855.53C244.889 857.21 246.029 858.08 247.799 858.08C249.809 858.08 252.359 856.73 252.359 852.83V852.47C248.939 852.62 246.779 852.89 245.759 853.64C245.159 854.09 244.889 854.69 244.889 855.53ZM252.389 857.15C251.459 859.13 249.719 860.27 247.319 860.27C244.139 860.27 242.189 858.5 242.189 855.68C242.189 853.94 242.939 852.59 244.559 851.78C246.209 850.91 248.819 850.58 252.359 850.46V849.65C252.359 846.98 251.159 845.9 248.909 845.9C246.329 845.9 245.609 847.37 245.489 848.6H242.879C243.059 845.96 245.039 843.8 248.909 843.8C252.569 843.8 254.939 845.51 254.939 849.59V856.61C254.939 857.57 255.209 857.81 256.169 857.81H256.709V860H255.869C253.499 860 252.689 859.13 252.569 857.15H252.389ZM274.938 860H260.628V857.75H266.388V838.52H261.198V836.36H269.058V857.75H274.938V860ZM283.808 841.22V837.2H287.828V841.22H283.808ZM293.228 860H278.918V857.75H284.738V846.35H279.788V844.19H287.318V857.75H293.228V860ZM311.157 848.96H308.367C308.127 847.52 306.837 845.93 304.407 845.93C301.347 845.93 299.967 848.33 299.967 852.02C299.967 855.83 301.077 858.23 304.407 858.23C307.197 858.23 308.307 856.16 308.517 854.84H311.247C310.767 858.32 307.977 860.39 304.407 860.39C299.637 860.39 297.177 857.36 297.147 852.14C297.117 847.07 299.877 843.8 304.557 843.8C307.767 843.8 310.617 845.27 311.157 848.96Z" fill="black"/>
<path d="M797.48 847.97C797.48 848.97 797.18 849.75 796.58 850.31C795.98 850.87 795.21 851.25 794.27 851.45V851.57C795.27 851.71 796.14 852.07 796.88 852.65C797.62 853.21 797.99 854.09 797.99 855.29C797.99 855.97 797.86 856.6 797.6 857.18C797.36 857.76 796.98 858.26 796.46 858.68C795.94 859.1 795.27 859.43 794.45 859.67C793.63 859.89 792.64 860 791.48 860H784.55V843.92H791.45C792.59 843.92 793.61 844.05 794.51 844.31C795.43 844.55 796.15 844.97 796.67 845.57C797.21 846.15 797.48 846.95 797.48 847.97ZM795.26 855.29C795.26 854.37 794.91 853.71 794.21 853.31C793.51 852.91 792.48 852.71 791.12 852.71H787.19V857.87H791.18C792.5 857.87 793.51 857.68 794.21 857.3C794.91 856.9 795.26 856.23 795.26 855.29ZM794.81 848.3C794.81 847.54 794.53 846.99 793.97 846.65C793.43 846.29 792.54 846.11 791.3 846.11H787.19V850.52H790.82C792.12 850.52 793.11 850.34 793.79 849.98C794.47 849.62 794.81 849.06 794.81 848.3ZM807.025 843.65C808.985 843.65 810.435 844.08 811.375 844.94C812.315 845.8 812.785 847.17 812.785 849.05V860H810.865L810.355 857.72H810.235C809.775 858.3 809.295 858.79 808.795 859.19C808.315 859.57 807.755 859.85 807.115 860.03C806.495 860.21 805.735 860.3 804.835 860.3C803.875 860.3 803.005 860.13 802.225 859.79C801.465 859.45 800.865 858.93 800.425 858.23C799.985 857.51 799.765 856.61 799.765 855.53C799.765 853.93 800.395 852.7 801.655 851.84C802.915 850.96 804.855 850.48 807.475 850.4L810.205 850.31V849.35C810.205 848.01 809.915 847.08 809.335 846.56C808.755 846.04 807.935 845.78 806.875 845.78C806.035 845.78 805.235 845.91 804.475 846.17C803.715 846.41 803.005 846.69 802.345 847.01L801.535 845.03C802.235 844.65 803.065 844.33 804.025 844.07C804.985 843.79 805.985 843.65 807.025 843.65ZM807.805 852.23C805.805 852.31 804.415 852.63 803.635 853.19C802.875 853.75 802.495 854.54 802.495 855.56C802.495 856.46 802.765 857.12 803.305 857.54C803.865 857.96 804.575 858.17 805.435 858.17C806.795 858.17 807.925 857.8 808.825 857.06C809.725 856.3 810.175 855.14 810.175 853.58V852.14L807.805 852.23ZM824.502 843.62C826.482 843.62 828.072 844.31 829.272 845.69C830.492 847.07 831.102 849.15 831.102 851.93C831.102 853.75 830.822 855.29 830.262 856.55C829.722 857.79 828.952 858.73 827.952 859.37C826.972 859.99 825.812 860.3 824.472 860.3C823.652 860.3 822.922 860.19 822.282 859.97C821.642 859.75 821.092 859.47 820.632 859.13C820.192 858.77 819.812 858.38 819.492 857.96H819.312C819.352 858.3 819.392 858.73 819.432 859.25C819.472 859.77 819.492 860.22 819.492 860.6V867.2H816.852V843.92H819.012L819.372 846.11H819.492C819.812 845.65 820.192 845.23 820.632 844.85C821.092 844.47 821.632 844.17 822.252 843.95C822.892 843.73 823.642 843.62 824.502 843.62ZM824.022 845.84C822.942 845.84 822.072 846.05 821.412 846.47C820.752 846.87 820.272 847.48 819.972 848.3C819.672 849.12 819.512 850.16 819.492 851.42V851.93C819.492 853.25 819.632 854.37 819.912 855.29C820.192 856.21 820.662 856.91 821.322 857.39C822.002 857.87 822.922 858.11 824.082 858.11C825.062 858.11 825.862 857.84 826.482 857.3C827.122 856.76 827.592 856.03 827.892 855.11C828.212 854.17 828.372 853.1 828.372 851.9C828.372 850.06 828.012 848.59 827.292 847.49C826.592 846.39 825.502 845.84 824.022 845.84ZM836.899 853.73C836.899 853.91 836.889 854.17 836.869 854.51C836.869 854.83 836.859 855.18 836.839 855.56C836.819 855.92 836.799 856.27 836.779 856.61C836.759 856.93 836.739 857.19 836.719 857.39L845.329 843.92H848.569V860H846.109V850.52C846.109 850.2 846.109 849.78 846.109 849.26C846.129 848.74 846.149 848.23 846.169 847.73C846.189 847.21 846.209 846.82 846.229 846.56L837.679 860H834.409V843.92H836.899V853.73ZM858.876 843.65C860.836 843.65 862.286 844.08 863.226 844.94C864.166 845.8 864.636 847.17 864.636 849.05V860H862.716L862.206 857.72H862.086C861.626 858.3 861.146 858.79 860.646 859.19C860.166 859.57 859.606 859.85 858.966 860.03C858.346 860.21 857.586 860.3 856.686 860.3C855.726 860.3 854.856 860.13 854.076 859.79C853.316 859.45 852.716 858.93 852.276 858.23C851.836 857.51 851.616 856.61 851.616 855.53C851.616 853.93 852.246 852.7 853.506 851.84C854.766 850.96 856.706 850.48 859.326 850.4L862.056 850.31V849.35C862.056 848.01 861.766 847.08 861.186 846.56C860.606 846.04 859.786 845.78 858.726 845.78C857.886 845.78 857.086 845.91 856.326 846.17C855.566 846.41 854.856 846.69 854.196 847.01L853.386 845.03C854.086 844.65 854.916 844.33 855.876 844.07C856.836 843.79 857.836 843.65 858.876 843.65ZM859.656 852.23C857.656 852.31 856.266 852.63 855.486 853.19C854.726 853.75 854.346 854.54 854.346 855.56C854.346 856.46 854.616 857.12 855.156 857.54C855.716 857.96 856.426 858.17 857.286 858.17C858.646 858.17 859.776 857.8 860.676 857.06C861.576 856.3 862.026 855.14 862.026 853.58V852.14L859.656 852.23ZM879.802 846.14H874.552V860H871.942V846.14H866.752V843.92H879.802V846.14ZM884.56 853.73C884.56 853.91 884.55 854.17 884.53 854.51C884.53 854.83 884.52 855.18 884.5 855.56C884.48 855.92 884.46 856.27 884.44 856.61C884.42 856.93 884.4 857.19 884.38 857.39L892.99 843.92H896.23V860H893.77V850.52C893.77 850.2 893.77 849.78 893.77 849.26C893.79 848.74 893.81 848.23 893.83 847.73C893.85 847.21 893.87 846.82 893.89 846.56L885.34 860H882.07V843.92H884.56V853.73ZM913.377 847.97C913.377 848.97 913.077 849.75 912.477 850.31C911.877 850.87 911.107 851.25 910.167 851.45V851.57C911.167 851.71 912.037 852.07 912.777 852.65C913.517 853.21 913.887 854.09 913.887 855.29C913.887 855.97 913.757 856.6 913.497 857.18C913.257 857.76 912.877 858.26 912.357 858.68C911.837 859.1 911.167 859.43 910.347 859.67C909.527 859.89 908.537 860 907.377 860H900.447V843.92H907.347C908.487 843.92 909.507 844.05 910.407 844.31C911.327 844.55 912.047 844.97 912.567 845.57C913.107 846.15 913.377 846.95 913.377 847.97ZM911.157 855.29C911.157 854.37 910.807 853.71 910.107 853.31C909.407 852.91 908.377 852.71 907.017 852.71H903.087V857.87H907.077C908.397 857.87 909.407 857.68 910.107 857.3C910.807 856.9 911.157 856.23 911.157 855.29ZM910.707 848.3C910.707 847.54 910.427 846.99 909.867 846.65C909.327 846.29 908.437 846.11 907.197 846.11H903.087V850.52H906.717C908.017 850.52 909.007 850.34 909.687 849.98C910.367 849.62 910.707 849.06 910.707 848.3ZM919.472 843.92V850.61H928.202V843.92H930.842V860H928.202V852.83H919.472V860H916.832V843.92H919.472ZM949.014 851.93C949.014 853.27 948.834 854.46 948.474 855.5C948.134 856.52 947.634 857.39 946.974 858.11C946.334 858.83 945.544 859.38 944.604 859.76C943.684 860.12 942.654 860.3 941.514 860.3C940.454 860.3 939.474 860.12 938.574 859.76C937.674 859.38 936.894 858.83 936.234 858.11C935.574 857.39 935.054 856.52 934.674 855.5C934.314 854.46 934.134 853.27 934.134 851.93C934.134 850.15 934.434 848.65 935.034 847.43C935.634 846.19 936.494 845.25 937.614 844.61C938.734 843.95 940.064 843.62 941.604 843.62C943.064 843.62 944.344 843.95 945.444 844.61C946.564 845.25 947.434 846.19 948.054 847.43C948.694 848.65 949.014 850.15 949.014 851.93ZM936.864 851.93C936.864 853.19 937.024 854.29 937.344 855.23C937.684 856.15 938.204 856.86 938.904 857.36C939.604 857.86 940.494 858.11 941.574 858.11C942.654 858.11 943.544 857.86 944.244 857.36C944.944 856.86 945.454 856.15 945.774 855.23C946.114 854.29 946.284 853.19 946.284 851.93C946.284 850.65 946.114 849.56 945.774 848.66C945.434 847.76 944.914 847.07 944.214 846.59C943.534 846.09 942.644 845.84 941.544 845.84C939.904 845.84 938.714 846.38 937.974 847.46C937.234 848.54 936.864 850.03 936.864 851.93ZM958.748 860.3C957.328 860.3 956.058 860.01 954.938 859.43C953.838 858.85 952.968 857.95 952.328 856.73C951.708 855.51 951.398 853.95 951.398 852.05C951.398 850.07 951.728 848.46 952.388 847.22C953.048 845.98 953.938 845.07 955.058 844.49C956.198 843.91 957.488 843.62 958.928 843.62C959.748 843.62 960.538 843.71 961.298 843.89C962.058 844.05 962.678 844.25 963.158 844.49L962.348 846.68C961.868 846.5 961.308 846.33 960.668 846.17C960.028 846.01 959.428 845.93 958.868 845.93C957.788 845.93 956.898 846.16 956.198 846.62C955.498 847.08 954.978 847.76 954.638 848.66C954.298 849.56 954.128 850.68 954.128 852.02C954.128 853.3 954.298 854.39 954.638 855.29C954.978 856.19 955.488 856.87 956.168 857.33C956.848 857.79 957.698 858.02 958.718 858.02C959.598 858.02 960.368 857.93 961.028 857.75C961.708 857.57 962.328 857.35 962.888 857.09V859.43C962.348 859.71 961.748 859.92 961.088 860.06C960.448 860.22 959.668 860.3 958.748 860.3ZM976.912 846.14H971.662V860H969.052V846.14H963.862V843.92H976.912V846.14ZM986.59 850.52C987.99 850.52 989.15 850.69 990.07 851.03C990.99 851.37 991.68 851.88 992.14 852.56C992.62 853.22 992.86 854.06 992.86 855.08C992.86 856.08 992.63 856.95 992.17 857.69C991.73 858.43 991.04 859 990.1 859.4C989.16 859.8 987.95 860 986.47 860H979.18V843.92H981.82V850.52H986.59ZM990.22 855.23C990.22 854.25 989.87 853.59 989.17 853.25C988.49 852.89 987.53 852.71 986.29 852.71H981.82V857.87H986.35C987.47 857.87 988.39 857.67 989.11 857.27C989.85 856.87 990.22 856.19 990.22 855.23Z" fill="black"/>
<line x1="629.658" y1="390.635" x2="693.658" y2="330.635" stroke="black"/>
<line x1="645.878" y1="426.515" x2="931.878" y2="354.515" stroke="black"/>
<line x1="511.404" y1="125.294" x2="372.404" y2="316.294" stroke="black"/>
<line x1="216.896" y1="138.511" x2="357.896" y2="108.511" stroke="black"/>
<rect x="28" y="1009" width="1144" height="182" fill="#24A172"/>
<path d="M277.104 1191H246.504V975.1H170.684V948.24H352.584V975.1H277.104V1191ZM519.97 1008.76V1033.92H438.71V1191H408.79V1008.76H519.97ZM593.84 1191V948.24H776.08V1191H745.82V975.1H624.44V1191H593.84ZM875.052 1008.76V1084.58H973.992V1008.76H1003.91V1191H973.992V1109.74H875.052V1191H845.132V1008.76H875.052Z" fill="black"/>
<rect x="261" y="949" width="2" height="242" fill="#24A172"/>
<rect x="462" y="1009" width="2" height="182" fill="black"/>
<rect x="684" y="948" width="2" height="243" fill="black"/>
<rect x="923" y="1009" width="2" height="182" fill="black"/>
<path d="M535.71 1255.96H532.92C532.68 1254.52 531.39 1252.93 528.96 1252.93C525.9 1252.93 524.52 1255.33 524.52 1259.02C524.52 1262.83 525.63 1265.23 528.96 1265.23C531.75 1265.23 532.86 1263.16 533.07 1261.84H535.8C535.32 1265.32 532.53 1267.39 528.96 1267.39C524.19 1267.39 521.73 1264.36 521.7 1259.14C521.67 1254.07 524.43 1250.8 529.11 1250.8C532.32 1250.8 535.17 1252.27 535.71 1255.96ZM542.329 1260.73C542.329 1260.91 542.319 1261.17 542.299 1261.51C542.299 1261.83 542.289 1262.18 542.269 1262.56C542.249 1262.92 542.229 1263.27 542.209 1263.61C542.189 1263.93 542.169 1264.19 542.149 1264.39L550.759 1250.92H553.999V1267H551.539V1257.52C551.539 1257.2 551.539 1256.78 551.539 1256.26C551.559 1255.74 551.579 1255.23 551.599 1254.73C551.619 1254.21 551.639 1253.82 551.659 1253.56L543.109 1267H539.839V1250.92H542.329V1260.73ZM575.467 1250.92V1267H573.097V1256.74C573.097 1256.32 573.107 1255.88 573.127 1255.42C573.167 1254.96 573.207 1254.51 573.247 1254.07H573.157L567.907 1267H565.687L560.587 1254.07H560.497C560.537 1254.51 560.557 1254.96 560.557 1255.42C560.577 1255.88 560.587 1256.35 560.587 1256.83V1267H558.217V1250.92H561.727L566.797 1263.85L571.957 1250.92H575.467ZM596.95 1250.92V1267H594.58V1256.74C594.58 1256.32 594.59 1255.88 594.61 1255.42C594.65 1254.96 594.69 1254.51 594.73 1254.07H594.64L589.39 1267H587.17L582.07 1254.07H581.98C582.02 1254.51 582.04 1254.96 582.04 1255.42C582.06 1255.88 582.07 1256.35 582.07 1256.83V1267H579.7V1250.92H583.21L588.28 1263.85L593.44 1250.92H596.95ZM607.392 1250.62C608.772 1250.62 609.952 1250.92 610.932 1251.52C611.932 1252.12 612.692 1252.97 613.212 1254.07C613.752 1255.15 614.022 1256.42 614.022 1257.88V1259.47H603.012C603.052 1261.29 603.512 1262.68 604.392 1263.64C605.292 1264.58 606.542 1265.05 608.142 1265.05C609.162 1265.05 610.062 1264.96 610.842 1264.78C611.642 1264.58 612.462 1264.3 613.302 1263.94V1266.25C612.482 1266.61 611.672 1266.87 610.872 1267.03C610.072 1267.21 609.122 1267.3 608.022 1267.3C606.502 1267.3 605.152 1266.99 603.972 1266.37C602.812 1265.75 601.902 1264.83 601.242 1263.61C600.602 1262.37 600.282 1260.86 600.282 1259.08C600.282 1257.32 600.572 1255.81 601.152 1254.55C601.752 1253.29 602.582 1252.32 603.642 1251.64C604.722 1250.96 605.972 1250.62 607.392 1250.62ZM607.362 1252.78C606.102 1252.78 605.102 1253.19 604.362 1254.01C603.642 1254.81 603.212 1255.93 603.072 1257.37H611.262C611.262 1256.45 611.122 1255.65 610.842 1254.97C610.562 1254.29 610.132 1253.76 609.552 1253.38C608.992 1252.98 608.262 1252.78 607.362 1252.78ZM628.316 1253.14H623.066V1267H620.456V1253.14H615.266V1250.92H628.316V1253.14ZM638.234 1250.62C640.214 1250.62 641.804 1251.31 643.004 1252.69C644.224 1254.07 644.834 1256.15 644.834 1258.93C644.834 1260.75 644.554 1262.29 643.994 1263.55C643.454 1264.79 642.684 1265.73 641.684 1266.37C640.704 1266.99 639.544 1267.3 638.204 1267.3C637.384 1267.3 636.654 1267.19 636.014 1266.97C635.374 1266.75 634.824 1266.47 634.364 1266.13C633.924 1265.77 633.544 1265.38 633.224 1264.96H633.044C633.084 1265.3 633.124 1265.73 633.164 1266.25C633.204 1266.77 633.224 1267.22 633.224 1267.6V1274.2H630.584V1250.92H632.744L633.104 1253.11H633.224C633.544 1252.65 633.924 1252.23 634.364 1251.85C634.824 1251.47 635.364 1251.17 635.984 1250.95C636.624 1250.73 637.374 1250.62 638.234 1250.62ZM637.754 1252.84C636.674 1252.84 635.804 1253.05 635.144 1253.47C634.484 1253.87 634.004 1254.48 633.704 1255.3C633.404 1256.12 633.244 1257.16 633.224 1258.42V1258.93C633.224 1260.25 633.364 1261.37 633.644 1262.29C633.924 1263.21 634.394 1263.91 635.054 1264.39C635.734 1264.87 636.654 1265.11 637.814 1265.11C638.794 1265.11 639.594 1264.84 640.214 1264.3C640.854 1263.76 641.324 1263.03 641.624 1262.11C641.944 1261.17 642.104 1260.1 642.104 1258.9C642.104 1257.06 641.744 1255.59 641.024 1254.49C640.324 1253.39 639.234 1252.84 637.754 1252.84ZM650.631 1260.73C650.631 1260.91 650.621 1261.17 650.601 1261.51C650.601 1261.83 650.591 1262.18 650.571 1262.56C650.551 1262.92 650.531 1263.27 650.511 1263.61C650.491 1263.93 650.471 1264.19 650.451 1264.39L659.061 1250.92H662.301V1267H659.841V1257.52C659.841 1257.2 659.841 1256.78 659.841 1256.26C659.861 1255.74 659.881 1255.23 659.901 1254.73C659.921 1254.21 659.941 1253.82 659.961 1253.56L651.411 1267H648.141V1250.92H650.631V1260.73ZM667.508 1267H664.448L669.038 1260.25C668.418 1260.09 667.818 1259.84 667.238 1259.5C666.658 1259.14 666.188 1258.65 665.828 1258.03C665.468 1257.39 665.288 1256.6 665.288 1255.66C665.288 1254.12 665.808 1252.95 666.848 1252.15C667.888 1251.33 669.268 1250.92 670.988 1250.92H678.188V1267H675.548V1260.61H671.648L667.508 1267ZM667.838 1255.69C667.838 1256.61 668.178 1257.3 668.858 1257.76C669.558 1258.2 670.528 1258.42 671.768 1258.42H675.548V1253.11H671.258C670.038 1253.11 669.158 1253.35 668.618 1253.83C668.098 1254.31 667.838 1254.93 667.838 1255.69Z" fill="black"/>
</svg>
