<svg width="1440" height="365" viewBox="0 0 1440 365" fill="none" xmlns="http://www.w3.org/2000/svg">
<mask id="mask0_301_110" style="mask-type:alpha" maskUnits="userSpaceOnUse" x="0" y="0" width="1440" height="365">
<rect width="1440" height="365" fill="#D9D9D9"/>
</mask>
<g mask="url(#mask0_301_110)">
<rect y="252" width="846" height="119" fill="#231F20"/>
<rect x="586" y="227.8" width="455" height="49.2401" fill="#231F20"/>
<rect x="1036" y="210" width="671" height="161" fill="#231F20"/>
<rect width="50" height="100.882" transform="matrix(-1 0 0 1 846 213.388)" fill="#231F20"/>
<path d="M662 257.142C662 208.059 622.21 168.269 573.128 168.269H216.872C167.79 168.269 128 208.059 128 257.142V257.142H662V257.142Z" fill="#231F20"/>
<path fill-rule="evenodd" clip-rule="evenodd" d="M1289.06 143.848C1263.89 169.299 1277.76 218.621 1310.63 220.525L1442.65 228.169C1445.3 228.323 1447.97 228.124 1450.59 227.577L1550.93 206.623C1579.82 200.59 1591.06 157.959 1570.32 133.055L1470.14 12.7327C1456.85 -3.22481 1435.6 -4.31802 1421.23 10.2161L1289.06 143.848ZM1366.6 131.815C1344.54 155.991 1354.97 200.032 1384.32 206.648L1440.18 219.24C1444.16 220.137 1448.23 220.226 1452.23 219.505L1500.17 210.868C1529.24 205.63 1541.26 163.157 1520.87 137.725L1470.63 75.0597C1457.03 58.0901 1434.64 57.2231 1420.15 73.1045L1366.6 131.815Z" fill="#231F20"/>
<path d="M1674 252.338C1674 203.255 1634.21 163.465 1585.13 163.465H1228.87C1179.79 163.465 1140 203.255 1140 252.338V252.338H1674V252.338Z" fill="#231F20"/>
</g>
</svg>
