<svg width="1192" height="754" viewBox="0 0 1192 754" fill="none" xmlns="http://www.w3.org/2000/svg">
<rect x="1156.61" y="195" width="35" height="7" fill="#241D25"/>
<rect x="1156.61" y="202" width="35" height="7" fill="#504B57"/>
<rect x="1156.61" y="209" width="35" height="7" fill="#241D25"/>
<rect x="1156.61" y="216" width="35" height="7" fill="#504B57"/>
<rect x="1156.61" y="223" width="35" height="7" fill="#241D25"/>
<rect x="1156.61" y="230" width="35" height="7" fill="#504B57"/>
<rect x="1156.61" y="237" width="35" height="7" fill="#241D25"/>
<rect x="1156.61" y="244" width="35" height="7" fill="#504B57"/>
<rect x="1156.61" y="251" width="35" height="7" fill="#241D25"/>
<rect x="1156.61" y="258" width="35" height="7" fill="#504B57"/>
<rect x="1156.61" y="265" width="35" height="7" fill="#241D25"/>
<rect x="1156.61" y="272" width="35" height="7" fill="#504B57"/>
<rect x="1156.61" y="279" width="35" height="7" fill="#241D25"/>
<rect x="1156.61" y="286" width="35" height="7" fill="#504B57"/>
<rect x="1156.61" y="293" width="35" height="7" fill="#241D25"/>
<rect x="1156.61" y="300" width="35" height="7" fill="#504B57"/>
<rect x="1156.61" y="307" width="35" height="7" fill="#241D25"/>
<rect x="1156.61" y="314" width="35" height="7" fill="#504B57"/>
<rect x="1156.61" y="321" width="35" height="7" fill="#241D25"/>
<rect x="1156.61" y="328" width="35" height="7" fill="#504B57"/>
<rect x="1156.61" y="335" width="35" height="7" fill="#241D25"/>
<rect x="1156.61" y="342" width="35" height="7" fill="#504B57"/>
<rect x="1156.61" y="349" width="35" height="7" fill="#241D25"/>
<rect x="1156.61" y="356" width="35" height="7" fill="#504B57"/>
<path d="M173 173C173 145.386 195.386 123 223 123H978C1005.61 123 1028 145.386 1028 173V754H173V173Z" fill="#020002"/>
<rect x="207.609" y="243" width="846" height="27" fill="#C0C2C2"/>
<rect x="308" width="607" height="312" fill="#F9FFD9"/>
<path d="M481.914 279H130.549L130 715H1071V279H732.811C700.419 279 687.792 310.26 693.282 336.036C709.753 373.33 756.418 410.623 771.242 426.527C782.584 438.697 864.818 487.965 909.745 514.144C913.62 516.402 917.023 519.544 918.315 523.838C922.11 536.459 920.191 557.504 891.474 574.054C857.216 593.797 745.072 614.821 693.282 622.864C662.172 626.155 584.249 630.762 521.443 622.864C442.935 612.992 340.819 583.377 321.055 574.054C301.291 564.731 284.271 533.47 296.898 517.566C309.526 501.662 410.543 446.27 436.896 426.527C463.248 406.784 499.483 371.136 514.306 336.036C529.129 300.937 506.62 285.581 481.914 279Z" fill="#E51807"/>
<rect x="111.305" y="146.003" width="91.3545" height="41.7447" rx="20.8723" fill="#D9D9D9"/>
<rect x="173.259" y="156.988" width="24.1512" height="131.825" rx="12.0756" fill="#B3B6B7"/>
<path d="M0.113734 494.764C-1.46134 506.299 13.7644 512.89 18.4896 500.806L147.646 174.539C158.672 127.85 117.195 121.808 104.069 160.258L0.113734 494.764Z" fill="#B3B6B7"/>
<path d="M138.157 161.383C138.157 167.293 133.594 171.967 128.106 171.967C122.618 171.967 118.055 167.293 118.055 161.383C118.055 155.473 122.618 150.799 128.106 150.799C133.594 150.799 138.157 155.473 138.157 161.383Z" stroke="black" stroke-width="3"/>
<path d="M193.81 170.171C193.81 174.867 190.187 178.558 185.859 178.558C181.532 178.558 177.909 174.867 177.909 170.171C177.909 165.474 181.532 161.784 185.859 161.784C190.187 161.784 193.81 165.474 193.81 170.171Z" stroke="black" stroke-width="3"/>
<path d="M194.259 205.324H214.711C220.233 205.324 224.711 209.801 224.711 215.324V271.124C224.711 276.647 220.233 281.124 214.711 281.124H194.259V205.324Z" fill="#B3B6B7"/>
<path d="M997.548 215.324C997.548 209.801 1002.03 205.324 1007.55 205.324H1018C1023.52 205.324 1028 209.801 1028 215.324V281.124H997.548V215.324Z" fill="#B3B6B7"/>
<path d="M210.01 241.027V160.284H1012.77V241.027" stroke="#ABB7B3" stroke-width="13"/>
<rect x="585.567" y="149" width="51.6163" height="22" rx="9" fill="#909195"/>
<rect x="869.457" y="149" width="52.5721" height="22" rx="9" fill="#909195"/>
<rect x="290.207" y="149" width="52.5721" height="22" rx="9" fill="#909195"/>
</svg>
