<svg width="499" height="396" viewBox="0 0 499 396" fill="none" xmlns="http://www.w3.org/2000/svg">
<path fill-rule="evenodd" clip-rule="evenodd" d="M27.7354 0V26.2669L55.7311 26.2669V286.916H71.7286V26.2669H85.7266L85.7266 136.386C80.9274 142.043 74.395 138.743 71.7288 136.386V179.827C76.528 173.362 83.0604 177.133 85.7266 179.827L85.7266 286.916H101.724V26.2669L109.723 26.2669V0H27.7354ZM85.7267 286.916C79.3277 294.19 73.7286 289.947 71.7289 286.916H55.7312C53.3315 290.957 48.7322 290.62 46.7326 289.947C40.7335 287.926 24.9359 282.471 9.73825 276.813C1.73948 278.43 3.07261 285.569 4.73902 288.937C17.4037 293.651 45.5327 304.293 56.731 309.142C62.3301 315.608 56.3977 319.918 52.7316 321.265C43.0665 317.561 20.5368 308.738 7.73873 303.08C-1.05991 303.08 -0.593319 310.489 0.739809 314.193C1.73966 314.867 10.2288 320.426 38.734 330.358C43.3466 331.965 47.529 333.342 51.3216 334.59L51.3275 334.592L51.329 334.593C71.3718 341.191 80.5233 344.204 84.7269 358.645C85.0602 367.737 85.7267 387.135 85.7267 391.984C93.7255 399.258 99.7246 395.015 101.724 391.984V286.916H85.7267Z" fill="black"/>
<path fill-rule="evenodd" clip-rule="evenodd" d="M157.458 0V26.2669L185.454 26.2669V286.916H201.451V26.2669H215.449V286.916H231.447V26.2669L239.445 26.2669V0H157.458ZM215.449 136.386C210.65 142.043 204.118 138.743 201.451 136.386V179.827C206.251 173.362 212.783 177.133 215.449 179.827V136.386ZM215.449 286.916C209.05 294.19 203.451 289.947 201.452 286.916H185.454C183.054 290.957 178.455 290.62 176.455 289.947C170.456 287.926 154.659 282.471 139.461 276.813C131.462 278.43 132.795 285.569 134.462 288.937C147.126 293.651 175.255 304.293 186.454 309.142C192.053 315.608 186.12 319.918 182.454 321.265C172.789 317.561 150.259 308.738 137.461 303.08C128.663 303.08 129.129 310.489 130.462 314.193C131.462 314.867 139.951 320.426 168.457 330.358C173.069 331.965 177.252 333.342 181.044 334.59L181.05 334.592L181.052 334.593C201.094 341.191 210.246 344.204 214.45 358.645C214.783 367.737 215.449 387.135 215.449 391.984C223.448 399.258 229.447 395.015 231.447 391.984V286.916H215.449Z" fill="black"/>
<path fill-rule="evenodd" clip-rule="evenodd" d="M287.181 0V26.2669L315.176 26.2669V286.916H331.174V26.2669H345.172V286.916H361.169V26.2669L369.168 26.2669V0H287.181ZM345.172 136.386C340.373 142.043 333.84 138.743 331.174 136.386V179.827C335.973 173.362 342.506 177.133 345.172 179.827V136.386ZM345.172 286.916C338.773 294.19 333.174 289.947 331.174 286.916H315.176C312.777 290.957 308.178 290.62 306.178 289.947C300.179 287.926 284.381 282.471 269.184 276.813C261.185 278.43 262.518 285.569 264.184 288.937C276.849 293.651 304.978 304.293 316.176 309.142C321.775 315.608 315.843 319.918 312.177 321.265C302.512 317.561 279.982 308.738 267.184 303.08C258.385 303.08 258.852 310.489 260.185 314.193C261.185 314.867 269.674 320.426 298.179 330.358C302.792 331.965 306.974 333.342 310.767 334.59L310.773 334.592L310.774 334.593C330.817 341.191 339.969 344.204 344.172 358.645C344.505 367.737 345.172 387.135 345.172 391.984C353.171 399.258 359.17 395.015 361.17 391.984V286.916H345.172Z" fill="black"/>
<path fill-rule="evenodd" clip-rule="evenodd" d="M416.904 0V26.2669L444.9 26.2669V286.916H460.897V26.2669H474.895V286.916H490.893V26.2669L498.891 26.2669V0H416.904ZM474.895 136.386C470.096 142.043 463.563 138.743 460.897 136.386V179.827C465.697 173.362 472.229 177.133 474.895 179.827V136.386ZM474.895 286.916C468.496 294.19 462.897 289.947 460.897 286.916H444.9C442.5 290.957 437.901 290.62 435.901 289.947C429.902 287.926 414.104 282.471 398.907 276.813C390.908 278.43 392.241 285.569 393.907 288.937C406.572 293.651 434.701 304.293 445.899 309.142C451.499 315.608 445.566 319.918 441.9 321.265C432.235 317.561 409.705 308.738 396.907 303.08C388.109 303.08 388.575 310.489 389.908 314.193C390.908 314.867 399.397 320.426 427.902 330.358C432.515 331.965 436.697 333.342 440.49 334.59L440.496 334.592L440.497 334.593C460.54 341.191 469.692 344.204 473.895 358.645C474.229 367.737 474.895 387.135 474.895 391.984C482.894 399.258 488.893 395.015 490.893 391.984V286.916H474.895Z" fill="black"/>
</svg>
