<svg width="1200" height="538" viewBox="0 0 1200 538" fill="none" xmlns="http://www.w3.org/2000/svg">
<path d="M765.5 397.273C791.667 228.44 860.9 -12.5267 928.5 374.273C921.5 223.773 968 -106.227 1036 218.273C1044 125.273 1102 15.7734 1118.5 286.773" stroke="#FBE373" stroke-width="28"/>
<path d="M893 518.274C907 390.107 951.2 193.474 1016 432.274C1018.5 324.274 1093 120.274 1145.5 345.774C1145.5 229.274 1127.5 -119.726 1077 167.774C1069.5 55.2737 993 -151.727 957 253.773C957 150.273 924.5 -170.727 886.5 198.273" stroke="#24A172" stroke-width="28"/>
<path d="M34 256.273C82 117.107 173.5 -101.5 239.5 380C274.5 235.5 350 78.0001 426.5 380C465 252 523 65.7734 556 303.273C581 192.273 672 179.273 718.5 336.773C732 205.773 813.5 146.273 858 336.773C849.5 190.773 940.5 -40.7266 992 278.273C995.5 105.773 1070.5 59.2734 1082 303.273C1090 167.273 1144 56.7735 1165.5 400.273" stroke="#E51807" stroke-width="28"/>
<rect y="239.273" width="70" height="70" rx="35" fill="#020002"/>
<path d="M34.39 262.72C34.36 262.9 33.79 265.24 33.43 266.56L31.39 273.91H37.6L35.56 266.56C35.17 265.15 34.63 262.72 34.63 262.72H34.39ZM40.15 283L38.23 276.16H30.76L28.87 283H26.05L32.74 260.05H36.4L43.15 283H40.15Z" fill="#F9FFD9"/>
<rect x="205" y="370" width="70" height="70" rx="35" fill="#020002"/>
<path d="M237.44 409.317V400.167H231.71V397.917H235.97C237.2 397.917 237.62 397.497 237.62 396.267V393.057H240.11V397.917H246.29V400.167H240.11V409.107C240.11 411.177 241.28 411.777 242.93 411.777C244.43 411.777 245.15 411.507 246.29 411.147V413.397C245.42 413.727 244.31 414.087 242.75 414.087C238.88 414.087 237.44 412.287 237.44 409.317Z" fill="#F9FFD9"/>
<rect x="408" y="382" width="70" height="70" rx="35" fill="#020002"/>
<path d="M450.07 425.727H435.76V423.477H441.52V404.247H436.33V402.087H444.19V423.477H450.07V425.727Z" fill="#F9FFD9"/>
<rect x="526" y="274.273" width="70" height="70" rx="35" fill="#020002"/>
<path d="M566.81 306.15H564.2C563.93 304.53 562.61 303.9 560.6 303.9C558.44 303.9 557.27 304.8 557.27 306.27C557.27 307.68 558.17 308.31 559.97 308.61L562.28 309C565.76 309.6 567.14 310.95 567.14 313.44C567.14 316.47 565.1 318.39 560.51 318.39C557.03 318.39 554.45 317.07 554.03 313.53H556.64C556.85 315.06 557.96 316.29 560.51 316.29C563.27 316.29 564.5 315.42 564.5 313.71C564.5 312.27 563.78 311.73 561.44 311.34L558.83 310.89C556.37 310.47 554.69 309.3 554.69 306.45C554.69 303.87 556.7 301.8 560.63 301.8C564.68 301.8 566.57 303.57 566.81 306.15Z" fill="#F9FFD9"/>
<rect x="683" y="309.273" width="70" height="70" rx="35" fill="#020002"/>
<path d="M713.43 345.68C713.43 348.8 715.08 351.26 718.26 351.26C721.26 351.26 722.73 349.01 722.73 344.87C722.73 341.51 721.68 338.96 718.23 338.96C715.26 338.96 713.43 341.33 713.43 344V345.68ZM710.82 358.64V337.19H713.43V339.83H713.49C714.48 338.15 716.28 336.8 718.8 336.8C722.31 336.8 725.46 338.87 725.46 344.87C725.46 350.63 722.34 353.39 718.62 353.39C716.19 353.39 714.21 352.1 713.58 350.69H713.52V358.64H710.82Z" fill="#F9FFD9"/>
<rect x="826" y="309.273" width="70" height="70" rx="35" fill="#020002"/>
<path d="M859.52 353L853.22 337.19H856.1L860.06 347.39C860.63 348.89 860.9 349.85 860.9 349.85H861.02C861.02 349.85 861.32 348.86 861.89 347.33L865.61 337.19H868.34L861.83 353.99C860.39 357.74 858.95 358.97 856.01 358.97C854.81 358.97 854.03 358.79 853.52 358.64V356.39C854.15 356.54 854.96 356.69 855.86 356.69C857.66 356.69 858.29 356.15 859.19 353.84L859.52 353Z" fill="#F9FFD9"/>
<rect x="959" y="265.273" width="70" height="70" rx="35" fill="#020002"/>
<path d="M989.31 304.53C989.31 306.21 990.45 307.08 992.22 307.08C994.23 307.08 996.78 305.73 996.78 301.83V301.47C993.36 301.62 991.2 301.89 990.18 302.64C989.58 303.09 989.31 303.69 989.31 304.53ZM996.81 306.15C995.88 308.13 994.14 309.27 991.74 309.27C988.56 309.27 986.61 307.5 986.61 304.68C986.61 302.94 987.36 301.59 988.98 300.78C990.63 299.91 993.24 299.58 996.78 299.46V298.65C996.78 295.98 995.58 294.9 993.33 294.9C990.75 294.9 990.03 296.37 989.91 297.6H987.3C987.48 294.96 989.46 292.8 993.33 292.8C996.99 292.8 999.36 294.51 999.36 298.59V305.61C999.36 306.57 999.63 306.81 1000.59 306.81H1001.13V309H1000.29C997.92 309 997.11 308.13 996.99 306.15H996.81Z" fill="#F9FFD9"/>
<rect x="1049" y="274.273" width="70" height="70" rx="35" fill="#020002"/>
<path d="M1087.26 304.41C1083.45 304.41 1081.44 307.02 1081.44 311.22V318H1078.74V302.19H1081.29V306.12H1081.35C1082.49 303 1084.71 301.89 1087.86 301.89C1088.94 301.89 1090.26 302.16 1091.01 302.52V305.07C1089.93 304.74 1088.88 304.41 1087.26 304.41Z" fill="#F9FFD9"/>
<rect x="1044" y="154.273" width="70" height="70" rx="35" fill="#020002"/>
<path d="M1081.72 204.06C1082.06 203.42 1082.35 202.77 1082.59 202.11C1082.85 201.45 1082.98 200.9 1082.98 200.46C1082.98 200.08 1082.92 199.76 1082.8 199.5C1082.7 199.26 1082.46 199.04 1082.08 198.84C1081.72 198.66 1081.16 198.49 1080.4 198.33C1078.68 197.95 1077.33 197.49 1076.35 196.95C1075.37 196.39 1074.67 195.73 1074.25 194.97C1073.85 194.19 1073.65 193.29 1073.65 192.27C1073.65 191.13 1073.89 190 1074.37 188.88C1074.87 187.76 1075.56 186.59 1076.44 185.37C1077.32 184.13 1078.32 182.78 1079.44 181.32L1082.71 177.09C1082.63 177.09 1082.35 177.1 1081.87 177.12C1081.41 177.14 1080.84 177.16 1080.16 177.18C1079.5 177.2 1078.83 177.21 1078.15 177.21H1074.55V175.2H1085.71V176.79L1081.21 182.76C1080.05 184.32 1079.11 185.63 1078.39 186.69C1077.69 187.75 1077.18 188.69 1076.86 189.51C1076.54 190.31 1076.38 191.11 1076.38 191.91C1076.38 192.59 1076.5 193.18 1076.74 193.68C1076.98 194.18 1077.45 194.62 1078.15 195C1078.87 195.38 1079.95 195.74 1081.39 196.08C1082.43 196.32 1083.26 196.59 1083.88 196.89C1084.5 197.19 1084.94 197.56 1085.2 198C1085.48 198.44 1085.62 199.01 1085.62 199.71C1085.62 200.29 1085.56 200.83 1085.44 201.33C1085.32 201.85 1085.16 202.33 1084.96 202.77C1084.76 203.21 1084.55 203.64 1084.33 204.06H1081.72Z" fill="#F7FAE9"/>
<rect x="1002" y="198.273" width="70" height="70" rx="35" fill="#020002"/>
<path d="M1032.68 242.3C1031.44 242.3 1030.39 241.96 1029.53 241.28C1028.69 240.6 1028.05 239.65 1027.61 238.43C1027.17 237.21 1026.95 235.8 1026.95 234.2C1026.95 232.3 1027.21 230.66 1027.73 229.28C1028.25 227.9 1028.88 226.78 1029.62 225.92H1032.32C1031.82 226.5 1031.36 227.19 1030.94 227.99C1030.54 228.77 1030.21 229.68 1029.95 230.72C1029.71 231.76 1029.59 232.93 1029.59 234.23C1029.59 236.17 1029.89 237.64 1030.49 238.64C1031.09 239.62 1031.88 240.11 1032.86 240.11C1033.52 240.11 1034.06 239.94 1034.48 239.6C1034.92 239.26 1035.24 238.8 1035.44 238.22C1035.64 237.62 1035.74 236.95 1035.74 236.21V231.38H1038.26V236.21C1038.26 237.03 1038.37 237.74 1038.59 238.34C1038.83 238.92 1039.16 239.36 1039.58 239.66C1040 239.96 1040.51 240.11 1041.11 240.11C1041.79 240.11 1042.37 239.89 1042.85 239.45C1043.35 239.01 1043.73 238.35 1043.99 237.47C1044.27 236.59 1044.41 235.51 1044.41 234.23C1044.41 232.97 1044.3 231.84 1044.08 230.84C1043.86 229.82 1043.54 228.91 1043.12 228.11C1042.72 227.29 1042.24 226.56 1041.68 225.92H1044.38C1044.92 226.54 1045.39 227.26 1045.79 228.08C1046.19 228.88 1046.5 229.79 1046.72 230.81C1046.94 231.83 1047.05 232.96 1047.05 234.2C1047.05 235.8 1046.83 237.21 1046.39 238.43C1045.95 239.65 1045.3 240.6 1044.44 241.28C1043.6 241.96 1042.56 242.3 1041.32 242.3C1040.22 242.3 1039.32 242.05 1038.62 241.55C1037.92 241.03 1037.4 240.18 1037.06 239H1036.91C1036.71 239.78 1036.42 240.42 1036.04 240.92C1035.66 241.4 1035.19 241.75 1034.63 241.97C1034.07 242.19 1033.42 242.3 1032.68 242.3Z" fill="#F7FAE9"/>
<rect x="924" y="221.273" width="70" height="70" rx="35" fill="#020002"/>
<path d="M965.5 265.3C964.4 265.3 963.57 264.98 963.01 264.34C962.45 263.7 962.17 262.74 962.17 261.46V250.96H955.36V265H952.75V250.96H949.48V248.92H967.93V250.96H964.78V261.28C964.78 261.98 964.91 262.47 965.17 262.75C965.43 263.01 965.76 263.14 966.16 263.14C966.44 263.14 966.69 263.11 966.91 263.05C967.15 262.99 967.34 262.92 967.48 262.84V264.91C967.32 264.99 967.06 265.07 966.7 265.15C966.36 265.25 965.96 265.3 965.5 265.3Z" fill="#F7FAE9"/>
<rect x="854" y="180.273" width="70" height="70" rx="35" fill="#020002"/>
<path d="M888.73 224.3C887.31 224.3 886.04 224.01 884.92 223.43C883.8 222.85 882.92 222.03 882.28 220.97C881.66 219.91 881.35 218.67 881.35 217.25C881.35 215.97 881.56 214.86 881.98 213.92C882.42 212.96 883.04 212.15 883.84 211.49C884.66 210.81 885.64 210.25 886.78 209.81C886.32 209.51 885.87 209.18 885.43 208.82C884.99 208.46 884.63 208.02 884.35 207.5C884.07 206.96 883.93 206.31 883.93 205.55C883.93 204.83 884.13 204.13 884.53 203.45C884.93 202.75 885.56 202.18 886.42 201.74C887.28 201.28 888.39 201.05 889.75 201.05C890.75 201.05 891.62 201.16 892.36 201.38C893.1 201.6 893.72 201.86 894.22 202.16C894.74 202.44 895.12 202.69 895.36 202.91L894.22 204.98C893.6 204.5 892.91 204.09 892.15 203.75C891.41 203.39 890.6 203.21 889.72 203.21C888.88 203.21 888.22 203.33 887.74 203.57C887.28 203.81 886.96 204.11 886.78 204.47C886.6 204.81 886.51 205.14 886.51 205.46C886.51 205.8 886.59 206.14 886.75 206.48C886.91 206.82 887.23 207.19 887.71 207.59C888.21 207.97 888.95 208.42 889.93 208.94C891.71 209.88 893.03 210.81 893.89 211.73C894.75 212.63 895.32 213.52 895.6 214.4C895.88 215.26 896.02 216.11 896.02 216.95C896.02 218.65 895.68 220.04 895 221.12C894.32 222.2 893.42 223 892.3 223.52C891.2 224.04 890.01 224.3 888.73 224.3ZM888.79 222.14C889.79 222.14 890.63 221.92 891.31 221.48C892.01 221.04 892.54 220.43 892.9 219.65C893.26 218.87 893.44 217.99 893.44 217.01C893.44 216.03 893.26 215.16 892.9 214.4C892.54 213.64 892.02 212.97 891.34 212.39C890.68 211.81 889.9 211.31 889 210.89C888.24 211.15 887.55 211.46 886.93 211.82C886.33 212.18 885.81 212.61 885.37 213.11C884.95 213.59 884.62 214.16 884.38 214.82C884.16 215.46 884.05 216.19 884.05 217.01C884.05 218.03 884.24 218.93 884.62 219.71C885.02 220.47 885.57 221.07 886.27 221.51C886.99 221.93 887.83 222.14 888.79 222.14Z" fill="#F7FAE9"/>
<rect x="731" y="365.273" width="70" height="70" rx="35" fill="#020002"/>
<path d="M755.75 409V406.63H760.49C759.75 406.07 759.03 405.37 758.33 404.53C757.63 403.67 757.05 402.65 756.59 401.47C756.15 400.29 755.93 398.96 755.93 397.48C755.93 395.52 756.31 393.77 757.07 392.23C757.83 390.69 758.94 389.48 760.4 388.6C761.86 387.7 763.64 387.25 765.74 387.25C767.86 387.25 769.65 387.69 771.11 388.57C772.57 389.45 773.68 390.66 774.44 392.2C775.2 393.74 775.58 395.49 775.58 397.45C775.58 398.95 775.36 400.29 774.92 401.47C774.48 402.65 773.91 403.67 773.21 404.53C772.53 405.37 771.81 406.07 771.05 406.63H775.76V409H767.72V406.84C768.96 405.96 769.95 405.06 770.69 404.14C771.43 403.22 771.96 402.23 772.28 401.17C772.6 400.09 772.76 398.89 772.76 397.57C772.76 396.05 772.51 394.69 772.01 393.49C771.51 392.29 770.74 391.35 769.7 390.67C768.68 389.97 767.36 389.62 765.74 389.62C764.14 389.62 762.82 389.97 761.78 390.67C760.76 391.35 760 392.29 759.5 393.49C759.02 394.69 758.78 396.05 758.78 397.57C758.78 398.89 758.94 400.09 759.26 401.17C759.58 402.23 760.1 403.22 760.82 404.14C761.56 405.04 762.55 405.94 763.79 406.84V409H755.75Z" fill="#F7FAE9"/>
<rect x="896" y="344.273" width="70" height="70" rx="35" fill="#020002"/>
<path d="M923.8 388V385.57H938.92V388H923.8ZM925.6 378.01V375.58H937.12V378.01H925.6ZM924.4 369.01V366.58H938.32V369.01H924.4Z" fill="#F7FAE9"/>
<rect x="861" y="467.273" width="70" height="70" rx="35" fill="#020002"/>
<path d="M889.55 518.2V494.92H892.19V505.3C892.19 506.54 892.5 507.49 893.12 508.15C893.74 508.79 894.65 509.11 895.85 509.11C896.95 509.11 897.82 508.89 898.46 508.45C899.12 507.99 899.6 507.33 899.9 506.47C900.2 505.59 900.35 504.53 900.35 503.29V494.92H902.99V507.46C902.99 508.08 903.11 508.52 903.35 508.78C903.59 509.02 903.88 509.14 904.22 509.14C904.38 509.14 904.55 509.12 904.73 509.08C904.91 509.04 905.04 509.01 905.12 508.99V510.91C905.02 510.97 904.88 511.03 904.7 511.09C904.52 511.15 904.32 511.2 904.1 511.24C903.88 511.28 903.66 511.3 903.44 511.3C902.7 511.3 902.08 511.12 901.58 510.76C901.1 510.4 900.75 509.76 900.53 508.84H900.32C899.98 509.36 899.59 509.81 899.15 510.19C898.73 510.55 898.23 510.82 897.65 511C897.09 511.2 896.43 511.3 895.67 511.3C895.15 511.3 894.67 511.24 894.23 511.12C893.81 511.02 893.42 510.87 893.06 510.67C892.72 510.45 892.42 510.21 892.16 509.95H892.04C892.08 510.19 892.11 510.49 892.13 510.85C892.15 511.19 892.16 511.58 892.16 512.02C892.18 512.48 892.19 512.98 892.19 513.52V518.2H889.55Z" fill="#F7FAE9"/>
<rect x="981" y="396.273" width="70" height="70" rx="35" fill="#020002"/>
<path d="M1017.99 440.3C1016.95 440.3 1016.09 440.11 1015.41 439.73C1014.75 439.35 1014.26 438.8 1013.94 438.08C1013.62 437.36 1013.46 436.5 1013.46 435.5V423.92H1016.1V435.59C1016.1 436.57 1016.31 437.24 1016.73 437.6C1017.15 437.94 1017.68 438.11 1018.32 438.11C1018.72 438.11 1019.07 438.08 1019.37 438.02C1019.69 437.96 1020 437.89 1020.3 437.81V439.94C1020.04 440.04 1019.72 440.12 1019.34 440.18C1018.96 440.26 1018.51 440.3 1017.99 440.3ZM1010.82 419.57C1010.82 419.05 1010.96 418.68 1011.24 418.46C1011.52 418.22 1011.85 418.1 1012.23 418.1C1012.61 418.1 1012.94 418.22 1013.22 418.46C1013.5 418.68 1013.64 419.05 1013.64 419.57C1013.64 420.07 1013.5 420.45 1013.22 420.71C1012.94 420.95 1012.61 421.07 1012.23 421.07C1011.85 421.07 1011.52 420.95 1011.24 420.71C1010.96 420.45 1010.82 420.07 1010.82 419.57ZM1016.46 419.57C1016.46 419.05 1016.59 418.68 1016.85 418.46C1017.13 418.22 1017.46 418.1 1017.84 418.1C1018.22 418.1 1018.55 418.22 1018.83 418.46C1019.11 418.68 1019.25 419.05 1019.25 419.57C1019.25 420.07 1019.11 420.45 1018.83 420.71C1018.55 420.95 1018.22 421.07 1017.84 421.07C1017.46 421.07 1017.13 420.95 1016.85 420.71C1016.59 420.45 1016.46 420.07 1016.46 419.57Z" fill="#F7FAE9"/>
<rect x="1114" y="309.273" width="70" height="70" rx="35" fill="#020002"/>
<path d="M1152.95 343.67V343.49C1152.86 340.85 1151.75 338.87 1148.81 338.87C1146.11 338.87 1144.61 340.82 1144.28 343.67H1152.95ZM1155.44 348.86C1154.84 351.59 1152.41 353.39 1148.93 353.39C1143.89 353.39 1141.49 349.88 1141.49 345.17C1141.49 340.49 1144.1 336.8 1148.84 336.8C1153.76 336.8 1155.71 340.46 1155.71 344.45V345.83H1144.22C1144.4 349.1 1145.84 351.29 1149.02 351.29C1151.84 351.29 1152.56 349.79 1152.86 348.86H1155.44Z" fill="#F9FFD9"/>
<rect x="1130" y="379.273" width="70" height="70" rx="35" fill="#020002"/>
<path d="M1159.05 423L1156.14 407.19H1158.63L1160.34 417.72C1160.52 418.71 1160.58 420.51 1160.58 420.51H1160.76C1160.76 420.51 1160.94 418.65 1161.12 417.75L1163.34 407.19H1165.95L1168.11 417.75C1168.29 418.65 1168.47 420.51 1168.47 420.51H1168.65C1168.65 420.51 1168.77 418.65 1168.92 417.75L1170.57 407.19H1173.06L1170.15 423H1167.09L1165.23 414.15C1164.9 412.59 1164.69 410.52 1164.69 410.52H1164.51C1164.51 410.52 1164.3 412.59 1163.97 414.15L1162.11 423H1159.05Z" fill="#F9FFD9"/>
</svg>
